<?xml version="1.0" encoding="utf-8"?>
<!-- Generator: Adobe Illustrator 26.0.3, SVG Export Plug-In . SVG Version: 6.00 Build 0)  -->
<svg version="1.0" id="Layer_1" xmlns="http://www.w3.org/2000/svg" xmlns:xlink="http://www.w3.org/1999/xlink" x="0px" y="0px"
	 viewBox="0 0 1314.8 885.3" style="enable-background:new 0 0 1314.8 885.3;" xml:space="preserve">
<style type="text/css">
	.st0{fill-rule:evenodd;clip-rule:evenodd;fill:#31B5B2;}
	.st1{fill-rule:evenodd;clip-rule:evenodd;fill:#ECECEC;}
	.st2{fill:#31B5B2;}
	.st3{fill-rule:evenodd;clip-rule:evenodd;fill:#FFFFFF;}
	.st4{fill:#FFFFFF;}
</style>
<path class="st0" d="M657.4,83.7c169.3,0,306.5,136.2,306.5,304.2S826.7,692,657.4,692S350.9,555.8,350.9,387.8
	S488.2,83.7,657.4,83.7"/>
<path class="st0" d="M341.1,608.5l81.5-45.5h234.9h234.9l81.5,45.5c-44.4,96.7-179.7,152.9-316.4,154.8
	C520.7,761.4,385.4,705.2,341.1,608.5"/>
<path class="st0" d="M437,625.6c72.9,50,147.1,76.1,220.4,76.6c73.3-0.5,147.5-26.6,220.4-76.6l57.6,66.1
	C859.7,765,759.3,802.5,657.4,801.7c-101.9,0.9-202.3-36.6-278.1-109.9L437,625.6z"/>
<path class="st1" d="M453.9,630.9c133.9,96.1,273.9,96.1,407.8,0l53.7,61.5c-140,129.9-375.1,129.9-515.1,0L453.9,630.9z"/>
<path class="st2" d="M853.7,693.4l-7.9-14.1l-8.2,4.5c2.2,1.1,3.9,2.8,5,4.9c2.4,4.3,1.6,8.1-2.5,11.5c1.1,1.1,2.6,1.9,4.2,2.2
	c0.8,0.1,1.6,0.1,2.4,0c0.8-0.1,1.6-0.4,2.3-0.7c1.1-0.6,2.1-1.4,2.8-2.5c0.4-0.5,0.7-1,1-1.5c0.3-0.5,0.5-1.1,0.7-1.6
	C853.8,695.3,853.9,694.3,853.7,693.4 M854.9,674.3l-3.3,1.8l16,28.6l-5.7,3.1l-4.5-7.9c-0.6,1.2-1.4,2.4-2.3,3.4
	c-0.9,0.9-2,1.7-3.2,2.3c-2.3,1.3-4.8,1.9-7.4,1.8c-5.3-0.1-10.2-3-12.8-7.6c0.7-0.1,1.4-0.4,2-0.7c1.4-0.8,2.6-1.9,3.3-3.3
	c0.8-1.5,0.6-3.4-0.3-4.8c-0.6-1.1-1.5-1.9-2.6-2.6c-0.8-0.6-1.6-1-2.6-1.2l-10.2,5.6l-2.5-4.4l33.6-18.5L854.9,674.3z M814,709.3
	l-4.7-10.1l-10,4.6l4.8,10.1L814,709.3z M818.6,694.9l-3.4,1.6l13.9,29.6l-5.9,2.7l-7.1-15.1l-10,4.6l1.8,3.9c0.2,0.5,0.3,1,0.2,1.6
	c0,0.7-0.4,1.3-1,1.5c-0.5,0.2-1.7,0-3.7-0.6c-2-0.6-3.9-1.4-5.7-2.3c-1.8-0.9-2.9-1.6-3.1-2.1c-0.3-0.5-0.2-1.2,0.2-1.7
	c0.2-0.2,0.4-0.4,0.6-0.6c0.2-0.1,0.3-0.3,0.5-0.4l2.3-1.1l-4.7-10.1l-9.7,4.5l-2.1-4.5l34.6-16L818.6,694.9z M782.3,712.4l-3.7,1.2
	l10.2,31.1l-6.1,2l-10.2-31.1l-8.7,2.8l5.7,17.3c0.7,2,0.2,3.2-1.3,3.7c-0.5,0.2-1.8-0.1-3.9-0.8c-2-0.7-4-1.6-5.9-2.7
	c-1.9-1-3-1.8-3.1-2.2c-0.2-0.6-0.1-1.3,0.3-1.8c0.3-0.4,0.7-0.7,1.2-0.9l3.8-1.2l-3-9.3l-12,3.9l-1.6-4.8l36.8-11.8L782.3,712.4z
	 M765,766.9l-1.1,3.3l-16.9-6l2.9-5L765,766.9z M749.9,723.7l-5.6,1.3l2.4,10.1l-15.9,3.6c-1,0.2-1.9,0.8-2.4,1.7
	c-0.5,1-0.7,2.1-0.4,3.1c0.3,1.6,1.3,3,2.6,4c1.4,1,2.9,1.7,4.6,2c1.4,0.3,2.8,0.3,4.2,0c0.5-0.1,1-0.3,1.3-0.6
	c-0.3-1.5-0.3-3,0.2-4.4c0.5-1.5,1.8-2.7,3.3-2.9c1.1-0.3,2.3,0,3.3,0.6c1,0.6,1.7,1.6,1.9,2.8c0.3,1.1,0.2,2.2-0.1,3.2
	c-0.3,0.9-0.8,1.7-1.6,2.2c0.8,1.2,1.7,2.3,2.6,3.3l2.3,2.3l1.4,1.5l-6.4,1.5l-1-1.1c-0.4-0.4-0.6-0.7-0.9-1
	c-0.1-0.1-0.3-0.4-0.7-0.9l-0.8-1.1l-1-1.4c-2.6,0.6-5.2,0.9-7.9,0.9c-3,0.1-5.9-0.6-8.5-2c-2.7-1.4-4.6-4-5.4-7.8
	c-0.4-1.5-0.3-3,0.2-4.5c0.5-1.4,1.4-2.7,2.5-3.8c1.1-1,2.5-1.7,4-2.1l10.9-2.5l-1.2-5.3l-25.4,5.7l-1.1-4.9l37.4-8.6L749.9,723.7z
	 M714.9,732.6l-3.8,0.3l2.9,32.6l-6.5,0.6l-1.5-17.4l-6.9,0.6l-3.7-4.2l10.2-0.9l-1-10.7l-10.5,0.9l0.8,9.2c0.2,2.5-0.4,4.4-2,5.6
	c-0.8,0.6-1.7,1-2.6,1.3l-2.1,0.5l2,2.5l2.9,3.2c1.1,1.1,2.4,2.4,3.9,3.8l2.4,2.2l-4.7,4.2l-1.9-2.1l-3.9-4.2
	c-0.7-0.8-1.5-1.7-2.5-2.8c-0.9-1-1.9-2.1-2.5-2.9c-1.7-1.9-3.4-4.1-5.2-6.6c-1-1.3-1.9-2.6-2.7-3.9l4.6-3.5
	c0.5,1.1,1.1,2.1,1.9,3.1c1.3,1.7,2.4,2.5,3.4,2.4c1.7-0.2,2.5-1.2,2.3-3.1l-0.7-8.3l-17.7,1.5l-0.4-5l45-3.9L714.9,732.6z
	 M661.1,736.5l-3.7-0.1l-0.6,32.7l-6.5-0.1l0.6-32.7l-7.6-0.1l0.1-5l17.8,0.3L661.1,736.5z M632.8,747l0.8-11.1l-11-0.8l-0.8,11.1
	L632.8,747z M643.8,736.6l-3.8-0.3l-2.3,32.6l-6.5-0.4l1.2-16.6l-11-0.8l-0.3,4.3c-0.1,0.5-0.3,1-0.5,1.5c-0.3,0.6-1,0.9-1.6,0.8
	c-0.6,0-1.5-0.8-3-2.3c-1.4-1.5-2.7-3.1-3.9-4.8c-1.1-1.7-1.7-2.8-1.7-3.3c0-0.6,0.4-1.2,1-1.4c0.3-0.1,0.6-0.2,0.8-0.2
	c0.2-0.1,0.4-0.1,0.7-0.1l2.5,0.2l0.8-11.1l-10.7-0.7l0.4-5l38.2,2.7L643.8,736.6z M593,724.8l-4.2-0.8L577,706.9l5.1-2.5L593,724.8
	z M588,729.1l-3.6-0.9l-8,31.7l-6.3-1.6l8-31.7l-7.4-1.8l1.2-4.8l17.3,4.3L588,729.1z M573.7,725.9l-3.7-1l-9.1,31.4l-6.3-1.8
	l6-20.8l-12.8-3.7c-0.7-0.2-1.3-0.2-2,0c-0.8,0.2-1.4,0.9-1.8,2.2c-0.4,2.3-0.1,4.6,0.6,6.8c0.7,2.4,1.7,4.7,2.9,6.8
	c0.5,1.1,1.2,2.2,2,3.2l-5.3,2.5c-0.9-1.3-1.7-2.7-2.3-4.1c-1.4-2.8-2.5-5.7-3.4-8.8c-0.4-1.4-0.6-2.9-0.7-4.4
	c-0.1-1.3,0-2.6,0.4-3.8c0.2-0.8,0.5-1.5,0.9-2.3c0.4-0.6,0.8-1.2,1.3-1.7c0.9-0.9,2-1.5,3.2-1.8c0.9-0.3,1.9-0.3,2.8-0.1l15.5,4.4
	l1.7-5.9l-27-7.7l1.4-4.8l36.9,10.5L573.7,725.9z M535.2,714l-3.5-1.5l-12.9,30.1l-6-2.5l6.8-16l-6.4-2.7l-1.2-5.4l9.4,4l4.2-9.9
	l-9.7-4.1l-3.6,8.5c-1,2.3-2.5,3.7-4.4,4c-1,0.1-2,0.1-2.9-0.1l-2.1-0.5l0.6,3.1l1.1,4.2c0.4,1.5,1,3.2,1.7,5.2l1.1,3l-6.1,1.4
	l-0.7-2.7l-1.4-5.5c-0.3-1-0.6-2.2-0.9-3.6c-0.4-1.5-0.6-2.8-0.8-3.7c-0.6-2.5-1-5.2-1.4-8.2c-0.3-1.6-0.4-3.1-0.5-4.7l5.7-1
	c-0.1,1.2,0,2.4,0.2,3.6c0.3,2.1,0.9,3.3,1.9,3.8c1.6,0.7,2.8,0.1,3.5-1.7l3.3-7.7l-16.3-6.9l2-4.6l41.5,17.5L535.2,714z M493.4,695
	l-4.4-2.4l-16,28.7l-5.7-3.1l7.7-13.8c-0.8,0-1.5-0.2-2.2-0.5c-0.9-0.5-1.8-1.2-2.4-2c-0.2,1-0.5,1.9-0.9,2.8
	c-0.9,1.6-2.3,3-3.9,3.8c-1.7,0.9-3.6,1.4-5.6,1.3c-2,0-4-0.6-5.7-1.5c-2.1-1.1-3.7-2.9-4.7-5c-1.1-2.1-1.8-4.4-2.2-6.7
	c-0.3-2.1-0.5-4.2-0.5-6.4c0-1.1,0-2.2,0.2-3.2l5.9,0.7c-0.2,1.3-0.2,2.7-0.2,4c0,1.2,0.1,2.4,0.2,3.7c0.1,1.2,0.4,2.4,0.7,3.6
	c0.4,2,1.6,3.8,3.3,4.8c1.2,0.8,2.7,0.9,4,0.4c1.3-0.6,2.4-1.6,3-2.9c1-1.9,1.2-3.5,0.5-4.8c-0.8-1.4-2-2.5-3.4-3.2
	c-0.7-0.5-1.6-0.8-2.4-1l0.4-5.2c4.7,2.6,8,2.3,9.7-0.8c0.6-0.9,0.8-2.1,0.6-3.1c-0.3-1.1-1.1-2-2.1-2.5c-1-0.5-2-0.7-3.1-0.7
	c-0.6,0-1.2,0-1.8,0.1c-0.5,0-1,0.2-1.7,0.3c-0.6,0.1-1.2,0.3-1.7,0.5l-2.3-5.1c0.8-0.3,1.5-0.6,2.4-0.7c0.8-0.2,1.5-0.3,2.3-0.3
	c0.9-0.1,1.8-0.1,2.7,0c2,0.1,4,0.7,5.7,1.7c1.5,0.8,2.8,1.9,3.8,3.3c0.9,1.3,1.5,2.8,1.6,4.3c0.1,1.6-0.2,3.1-1,4.5
	c-1.3,2.5-3.8,4.1-6.5,4.2c0.6,0.6,1.1,1.2,1.5,1.9c0.7,0.9,1.3,1.9,1.8,2.9c0.3,0.5,0.8,0.9,1.4,1.1c1.6,0.8,3.3,1.2,5.1,1.2
	l5.8-10.4l-5-2.7l2.4-4.4l15.1,8.3L493.4,695z"/>
<path class="st1" d="M657.4,96c162.4,0,294,130.6,294,291.8s-131.6,291.8-294,291.8s-294-130.6-294-291.8S495,96,657.4,96"/>
<path class="st2" d="M925.5,446.9l0.6-1.2c0.4-0.8,0.7-1.6,0.8-2.5l0.4-1.8c0.4-3.5-1.9-5.8-6.8-6.9c-2.2-0.2-4.3,0-6.4,0.7
	c-1.6,0.4-3,1.1-4.2,2.2l1.1-4.9c1.4-1.1,3.1-2,4.9-2.5c1.2-0.4,2.4-0.7,3.6-0.8c1.1-0.2,2.1-0.1,3.2,0.1c3.7,0.9,6.4,2.4,7.9,4.7
	c1.5,2.2,2,5,1.3,7.6c-0.4,2.2-1.2,4.3-2.4,6.2L925.5,446.9z M906,437.4l0.6-8.2l-11.3-0.8l1.2-17.1c0.1-0.9-0.2-1.4-0.8-1.4
	c-0.4,0.1-0.8,0.2-1.1,0.4c-0.5,0.3-1,0.6-1.6,1.1s-1.3,1-1.9,1.5c-1.3,1.2-2,2.2-2.1,3.2c0,0.4,0,0.8,0,1.2c0,0.4,0,0.8,0.1,1.1
	l0.6,2.7c0.3,1.1,0.5,2,0.6,2.6c0.1,0.7,0.1,1.4,0.1,2.1c-0.1,0.9-0.4,1.8-0.9,2.5c-0.6,0.8-1.3,1.4-2.2,1.8c-2,0.9-4.2,1.3-6.4,1.1
	c-5.1-0.3-8.5-2.1-10.3-5.4c-1.8-3.1-2.6-6.6-2.4-10.1c0.3-3.5,1.5-6.9,3.5-9.8c2-3,4.4-5.7,7.2-8.1c2.4-2,4.9-3.9,7.5-5.6
	c1.2-0.8,2.5-1.6,3.9-2.2l4.3,5.3l-0.9,0.5l-2.7,1.4c-1.1,0.6-2.3,1.4-3.4,2.1s-2.4,1.7-3.7,2.6c-2.5,1.9-4.8,4.2-6.8,6.7
	c-1,1.2-1.8,2.5-2.4,3.8c-0.6,1.2-0.9,2.5-1,3.9c-0.2,1.9,0.5,3.8,1.9,5.1c1.6,1.4,3.7,2.2,5.9,2.2c1.9,0.1,2.8-0.3,2.9-1.3
	c0-0.3-0.1-0.7-0.2-1c-0.5-1.3-0.8-2.7-1.1-4.1c-0.2-1.2-0.3-2.4-0.2-3.6c0.1-1.2,1-2.8,2.7-4.8c1.7-1.9,3.8-3.6,6-4.9
	c2-1.3,4.3-2,6.7-2c1.2,0.1,2.3,0.6,3.1,1.5c0.8,0.9,1.2,2.1,1.1,3.4l-1,14.5l5.7,0.4l2.6-36.3l6.1,0.4l-3.7,52L906,437.4z
	 M914.6,376.8l-0.2-5.2l17.3-18.6l4.4,5.3L914.6,376.8z M909,380.7l-0.4-4.5l-40.1,3.5l-0.7-7.9l40.1-3.5l-0.8-9.1l6.1-0.5l1.9,21.5
	L909,380.7z M882.4,347l5.8-14.6l-1.5,0.1c-0.8,0-1.5,0.1-2.3,0.3c-2,0.5-3.7,1.7-4.8,3.3c-1.2,1.6-1.6,3.6-1.1,5.5
	c0.4,1.3,1.1,2.6,2,3.6C881.6,346.4,882.3,347,882.4,347z M908.7,354.8l-1.1-4.4l-39.1,9.7l-1.9-7.6l11.4-2.8
	c-2.7-2.1-4.5-5-5.4-8.3c-0.3-1.1-0.4-2.3-0.3-3.5c0.1-1.2,0.4-2.4,0.7-3.5c0.4-1.1,0.9-2.2,1.5-3.2c0.6-1,1.4-1.9,2.3-2.7
	c1.7-1.6,3.9-2.8,6.2-3.3c2.3-0.6,4.7-0.5,7,0.2c4.7,1.5,8.2,5.3,9.4,10.1c0.4,1.8,0.6,3.7,0.4,5.5l-5.7,2.1l0.2-1v-1.8
	c0-0.5-0.1-0.9-0.1-1.1c-0.1-0.4-0.1-0.8-0.2-1.2c-0.4-1.5-1.3-2.8-2.4-3.8l-5.8,13.6l20-4.9l-7.3-28.8l6-1.5l10.3,40.9L908.7,354.8
	z M890.7,292.8l-1.9-4.1l-36.4,16.9l-3.4-7.1l36.5-16.9l-3.9-8.3l5.6-2.6l9.2,19.6L890.7,292.8z M880.3,272.7l-2.3-3.9l-34.9,20
	l-4-6.8l34.9-20l-4.6-8l5.3-3.1l10.9,18.7L880.3,272.7z M860.1,245.1c1-0.6,1.7-1.6,2-2.7c0.3-1.1,0-2.3-0.7-3.1
	c-0.6-0.8-1.5-1.3-2.4-1.5c-0.5,0-1,0-1.5,0.1c-0.5,0.1-0.9,0.3-1.3,0.6c-1.1,0.8-1.9,1.9-2.3,3.2c-0.4,0.9-0.5,2-0.3,3l0.3,0.2
	l1,0.5c0.8,0.3,1.7,0.5,2.6,0.5C858.3,246,859.3,245.7,860.1,245.1L860.1,245.1z M859.3,267.4c-1.2-0.8-2.3-1.7-3.3-2.7
	c-0.9-0.8-1.7-1.7-2.4-2.7c-1.1-1.5-2-3.1-2.8-4.7c-0.8-1.6-1.4-3.3-2-5.1c-0.2-0.7-0.5-1.4-0.7-2.1s-0.3-1.2-0.4-1.4
	c-0.6-0.4-1.3-0.7-2-0.8c-1.2-0.2-2.4-0.3-3.6-0.2c-1.3,0.1-2.6,0.5-3.7,1.3c-2.2,1.6-3.1,3.4-2.8,5.3c0.3,1.7,0.9,3.4,1.9,4.8
	c0.3-0.4,0.7-0.8,1.1-1.2c1.2-0.9,2.6-1.2,4.1-1.1c1.4,0.1,2.6,0.7,3.5,1.8c1,1.2,1.6,2.8,1.4,4.5c-0.2,1.5-1.1,2.8-2.3,3.6
	c-1.1,0.9-2.5,1.3-3.9,1.1c-0.8-0.1-1.6-0.4-2.3-0.9c-0.2,0.6-0.3,1.2-0.4,1.8c-0.1,0.5-0.2,1.1-0.2,1.7c-0.1,1.1-0.1,2.2,0,3.4
	l-6.7-1.9c0.5-1.7,0.9-3,1.2-4l1.7-4.1c-1-0.7-1.9-1.5-2.7-2.5c-2.8-3.9-3.5-8.9-1.9-13.4c0.8-2.2,2.2-4,4.1-5.4
	c2.1-1.5,4.7-2.2,7.3-2c2.2,0,4.3,0.5,6.3,1.4c0.1-1.5,0.5-2.9,1.2-4.2c0.8-1.8,2.1-3.3,3.7-4.5c1-0.7,2.1-1.2,3.2-1.4
	c1.2-0.2,2.5-0.2,3.7,0.1c2.5,0.6,4.6,2.1,6.1,4.2c1.1,1.5,1.9,3.3,2.3,5.2c0.4,1.8,0.3,3.7-0.2,5.4c-0.5,1.7-1.7,3.2-3.1,4.3
	c-2.8,2.2-6.7,2.5-9.8,0.7c0.7,2.1,1.7,4,3,5.8c1.9,2.5,4.4,4.5,7.3,5.8L859.3,267.4z M846.7,223.9l-3.2-3.2l-29,27.8l-5.5-5.7
	l29-27.8l-6.4-6.6l4.4-4.2l15.1,15.5L846.7,223.9z M815.9,201.3c0.5-0.7,0.7-1.5,0.8-2.3c0.1-1.1,0-2.3-0.4-3.3
	c-0.4-1.2-1.1-2.2-2.2-3c-0.9-0.7-2.1-1-3.2-0.8c-1.2,0.2-2.2,0.8-2.9,1.7c-0.8,1-1.1,2.3-0.8,3.5c0.3,1.3,1,2.4,2.1,3.2
	c1,0.8,2.2,1.2,3.4,1.4C813.7,201.8,814.9,201.7,815.9,201.3L815.9,201.3z M830.4,205.9l-7.4-5.8c0,1.6-0.2,3.2-0.6,4.7
	c-0.4,1.5-1.2,2.8-2.1,4c-1.7,2.2-3.9,4-6.4,5.3c-2.4,1.2-5.2,1.8-7.9,1.7c-1.4,0-2.8-0.3-4.1-0.7c-1.3-0.4-2.5-1-3.5-1.8l0.5,2.5
	c0.2,1.2,0.4,2.4,0.8,3.6l2,8l-7.2,1.8l-0.7-2.9l-1.3-5.6l-1.2-6l-1.1-7.6l-0.5-5l7-0.9l0.6,3.9l0.5,0.7c0.3,0.4,0.7,0.8,1.1,1.1
	c0.3,0.2,0.6,0.4,0.9,0.7c4.8,2.3,8.6,1.9,11.4-1.1c-2.1-0.5-4.1-1.4-5.8-2.6c-2.3-1.7-4-4.1-4.8-6.9c-0.7-2.6,0-5.4,1.8-7.5
	c1-1.2,2.3-2.2,3.7-2.8l-8.3-6.4l3.8-4.8l32.9,25.5L830.4,205.9z M825.8,186.9l-7.2-3.9c0-0.2,0-0.3-0.1-0.4
	c-0.1-0.8-0.3-1.7-0.6-2.8s-0.6-2.1-0.9-3.1c-0.3-1-0.8-2.2-1.3-3.4c-1-2.6-2.4-5-4-7.2c-1.6-2.2-3.6-4.1-6-5.4
	c-2.6-1.4-5-1.8-7.2-1.1c-2.2,0.8-4.1,2.4-5.2,4.5c-0.3,0.5-0.6,1.1-0.8,1.7c-0.3,0.7-0.5,1.4-0.7,2.1c-0.2,0.8-0.3,1.2-0.3,1.4
	c0,0.2-0.1,0.4-0.1,0.6l4.8,2.6l-2.9,5.3l-4-2.2l-19.5,35l-7-3.8l19.5-34.9l-8-4.5l3-5.3l8,4.4c0-0.2,0.1-0.5,0.2-0.7
	c0.1-0.5,0.2-1,0.3-1.5c0.4-1.5,1-2.9,1.7-4.3c2.4-4.7,7.5-7.5,12.8-6.9c1.4,0.1,2.8,0.4,4.2,0.8c1.5,0.5,2.9,1.1,4.3,1.8
	c4.2,2.4,7.6,5.9,9.7,10.2c1.3,2.3,2.3,4.6,3.2,6.6c0.8,2,1.5,4,2.1,6.1C824.8,182,825.4,184.9,825.8,186.9L825.8,186.9z
	 M753.5,155.7l-22.6-6l-2.4,8.8c0.1-0.1,0.1-0.1,0.2-0.2c0.3-0.2,0.7-0.3,1-0.5c1.1-0.4,2.2-0.7,3.3-0.8c1.4-0.2,2.8-0.1,4.2,0.3
	c4.3,1.1,7.6,4.4,8.7,8.7c0.6,2,0.6,4.2,0,6.2c-0.6,2-1.5,3.9-2.9,5.6c-1.3,1.6-2.7,3.1-4.3,4.4c-0.8,0.7-1.6,1.2-2.2,1.7
	c-0.6,0.5-1.3,0.9-2,1.3c-0.5,0.3-1,0.6-1.5,0.8c-0.2,0.1-0.3,0.2-0.5,0.3l-4.4-5.7l0.6-0.3c0.7-0.4,1.3-0.7,1.9-1
	c1.7-1,3.2-2.2,4.6-3.6c1.5-1.4,2.5-3.1,3.1-5.1c0.5-1.6,0.4-3.2-0.2-4.7c-0.5-1.4-1.8-2.5-3.3-2.9c-1.2-0.3-2.4-0.2-3.5,0.3
	c-1.2,0.5-2.4,1.1-3.4,1.8c-0.5,0.4-1,0.8-1.4,1.3l-5.9,21.8l-7.6-2l2.9-10.5c-2.6,1-5.4,1.1-8.1,0.4c-2.3-0.6-4.3-1.7-6-3.2
	c-1.7-1.5-2.8-3.5-3.4-5.8c-0.6-2.4-0.5-4.9,0.2-7.3c1.4-5.2,4.1-8.1,8.1-8.8c3.5-0.7,7.2-0.7,10.7,0.2l0.1,6.5
	c-0.3-0.2-0.5-0.3-0.8-0.5c-0.3-0.1-0.6-0.3-0.9-0.3c-1.9-0.5-3.9-0.5-5.8,0.1c-2,0.6-3.3,2.2-4,4.6c-0.5,1.8-0.4,3.7,0.4,5.3
	c0.7,1.6,2,2.7,3.7,3.2c1.2,0.3,2.5,0.3,3.8,0c1.1-0.3,2.1-0.7,3-1.3l1.3-1l5.5-20.2l-27.2-7.2l1.6-5.9l57.4,15.3L753.5,155.7z
	 M675.8,152.9l0.2-13.6l-13.5-0.2l-0.2,13.6L675.8,152.9z M688.5,139.5l-4.6-0.1l-0.7,40l-7.9-0.1l0.4-20.3l-13.5-0.2l-0.1,5.3
	c-0.1,0.6-0.3,1.3-0.6,1.8c-0.3,0.7-1.1,1.2-2,1.1c-0.7,0-1.9-0.9-3.8-2.6c-1.8-1.7-3.5-3.6-5-5.6c-1.5-2-2.3-3.3-2.2-3.9
	c-0.1-0.8,0.4-1.5,1.1-1.8c0.4-0.2,0.7-0.2,1-0.3c0.3-0.1,0.5-0.1,0.8-0.1l3.1,0.1l0.2-13.6l-13.1-0.2l0.1-6.1l46.8,0.8L688.5,139.5
	z M669.9,128l-8.1,1c-0.1-0.1-0.2-0.2-0.3-0.3c-0.6-0.6-1.3-1.2-2.1-1.9s-1.7-1.3-2.6-2s-1.9-1.3-3.1-2c-2.3-1.5-4.8-2.6-7.5-3.5
	c-2.6-0.9-5.4-1.2-8.1-0.9c-3,0.4-5.1,1.4-6.5,3.3c-1.4,1.9-1.9,4.3-1.5,6.6c0.1,0.6,0.2,1.2,0.4,1.8c0.2,0.7,0.4,1.4,0.7,2.1
	c0.3,0.7,0.5,1.2,0.6,1.3c0.1,0.2,0.2,0.4,0.3,0.5l5.4-0.7l0.8,6.1l-4.6,0.6l4.9,39.7l-7.9,1l-4.9-39.7l-9.2,1.1l-0.8-6.1l9.2-1.1
	c-0.1-0.2-0.2-0.5-0.3-0.7c-0.2-0.5-0.4-1-0.6-1.4c-0.6-1.4-1-2.9-1.2-4.5c-0.8-5.2,1.7-10.4,6.3-13.1c1.2-0.7,2.5-1.3,3.8-1.8
	c1.5-0.5,3-0.8,4.6-1c4.8-0.5,9.6,0.4,13.9,2.7c2.4,1.2,4.6,2.3,6.5,3.5c1.9,1.1,3.7,2.3,5.4,3.7C666.3,124.7,668.5,126.6,669.9,128
	z M606.7,164.5l-5.1-19l-11.1,3c2.3,1.9,3.9,4.5,4.5,7.4c1.5,5.8-0.6,10.1-6.4,12.9c1,1.7,2.5,3,4.3,3.8c0.9,0.4,1.9,0.6,2.8,0.8
	c1,0.1,2,0,2.9-0.2c2.2-0.6,4.1-1.9,5.6-3.6c0.5-0.5,0.9-1.1,1.3-1.7C606.1,166.8,606.6,165.7,606.7,164.5z M613.8,142.3l-4.5,1.2
	l10.4,38.6l-7.7,2l-2.9-10.7c-1.1,1.3-2.4,2.4-3.8,3.3c-1.4,0.8-2.9,1.4-4.4,1.8c-3.1,0.8-6.3,0.8-9.3,0
	c-6.3-1.6-11.2-6.5-12.9-12.8c0.9,0,1.7-0.1,2.6-0.3c1.9-0.5,3.6-1.5,4.9-3c1.3-1.4,1.7-3.4,1-5.8c-0.5-1.4-1.2-2.8-2.3-3.8
	c-0.7-0.9-1.6-1.7-2.7-2.2l-13.8,3.7l-1.6-5.9l45.4-12.1L613.8,142.3z M582,180c-0.1,0.1-0.1,0.2-0.2,0.3c-0.4,0.7-0.9,1.4-1.5,2.1
	c-1.3,1.6-2.7,3.2-4.2,4.6c-1.6,1.5-3.4,2.7-5.3,3.6c-3,1.4-6.3,1.7-9.5,0.7c-3-0.8-5.4-3-6.7-5.8c-1.2-2.7-0.9-5.4,0.8-8.3
	c-0.2-0.1-0.5-0.1-0.8-0.2c-0.4-0.1-1.1-0.3-2.2-0.6c-0.9-0.3-1.8-0.7-2.7-1.1c-1-0.5-1.9-1-2.8-1.6c-1.8-1.1-3.1-2.8-4-4.7
	c-0.7-1.5-0.9-3.2-0.6-4.8c0.3-1.6,1-3.1,2.1-4.4c1.1-1.3,2.4-2.3,4-3c2.4-1.2,5.2-1.3,7.6-0.1c2.5,1.4,4.4,3.7,5.5,6.4l-4.9,2.2
	c0-0.3-0.1-0.7-0.2-1c-0.5-1-1.2-1.9-2.2-2.6c-1-0.7-2.2-0.8-3.2-0.2c-0.9,0.3-1.6,1.2-1.7,2.1c-0.1,1.1,0.1,2.1,0.5,3.1
	c0.3,0.6,0.7,1.2,1.1,1.8c0.5,0.6,1.1,1.1,1.8,1.5c1.3,0.8,2.7,1.5,4.1,2c0.7,0.3,1.5,0.5,2.3,0.6l1.4-1.1l2-1.5l4.9-2.1l4.3,3.7
	l-0.7,0.3l-1.2,0.5c-2.4,1-4.6,2.5-6.5,4.3c-1.7,1.5-2.2,3.9-1.2,5.9c0.5,1.5,1.8,2.6,3.3,2.9c1.4,0.2,2.8,0,4.1-0.6
	c1.7-0.8,3.2-2.1,4.3-3.6c1.3-1.7,2.5-3.6,3.5-5.5c1-1.9,1.4-2.9,1.3-3.2L582,180z M538.1,169.8l-4,2.2l19.5,35l-7,3.8l-19.5-34.9
	l-8.1,4.4l-3-5.3l19-10.5L538.1,169.8z M513.6,200.8l-8.8-10.4l-10.3,8.6l8.8,10.4L513.6,200.8z M514.3,182.4l-3.5,2.9l25.9,30.6
	l-6.1,5.1l-13.2-15.6l-10.3,8.6l3.4,4c0.4,0.5,0.7,1.1,0.8,1.8c0.2,0.8-0.1,1.6-0.8,2.1c-0.5,0.4-2,0.6-4.6,0.5
	c-2.5-0.1-5-0.5-7.5-1c-2.5-0.5-3.9-1-4.3-1.5c-0.6-0.5-0.7-1.4-0.3-2.1c0.2-0.4,0.4-0.7,0.5-0.9c0.1-0.2,0.3-0.4,0.5-0.6l2.4-2
	l-8.8-10.4l-10,8.3l-4-4.7l35.9-29.7L514.3,182.4z M471,254.5l-16.6-10.7l-6.3,9.6c3-0.1,5.9,0.8,8.3,2.5c5,3.3,6.4,7.9,4,13.8
	c1.9,0.6,3.9,0.6,5.7,0c0.9-0.3,1.8-0.8,2.6-1.3c0.8-0.6,1.5-1.3,2-2.1c0.8-1.3,1.4-2.7,1.6-4.2c0.1-0.7,0.2-1.4,0.2-2.1
	c0-0.7-0.1-1.4-0.2-2.1C472.2,256.6,471.7,255.5,471,254.5L471,254.5z M461.3,233.3l-2.6,3.9l33.8,21.8l-4.3,6.6l-9.4-6
	c0.1,1.7-0.1,3.4-0.6,5c-0.5,1.5-1.2,3-2.1,4.3c-1.7,2.6-4.1,4.8-6.9,6.2c-5.8,3-12.7,2.6-18.2-0.9c0.7-0.6,1.2-1.2,1.7-1.9
	c1.1-1.6,1.7-3.5,1.7-5.5c0-2-1-3.6-3.1-5c-1.3-0.8-2.8-1.2-4.3-1.3c-1.2-0.2-2.4-0.2-3.5,0.1l-7.8,11.9l-5.2-3.3l25.6-39.1
	L461.3,233.3z M434.9,275.1l-1.9,4.1l36.5,16.9l-3.4,7.1l-36.5-16.9l-3.9,8.3l-5.6-2.6l2.6-5.5c-1.7-0.4-3.4-0.6-5.1-0.7
	c-3-0.2-6,0-8.9,0.6c-3,0.6-5.1,2-6.1,4.2c-0.8,1.7-1.1,3.7-0.7,5.5c0.3,1.8,1.4,3.3,3.1,4c1.3,0.6,2.6,0.9,4,1c1.3,0.1,2.7,0,4-0.2
	c0.7-0.1,1.4-0.2,2-0.5l-3.4,7.1l-1.2,0.3l-2.2,0.3c-1,0.1-2.1,0-3.1-0.2c-1.3-0.2-2.5-0.6-3.7-1.2c-1.5-0.7-2.8-1.7-3.8-3
	c-1-1.3-1.7-2.8-2-4.4c-0.8-3.2-0.2-6.8,1.6-10.8c1.3-2.9,3.7-5.2,6.6-6.6c2.9-1.4,6-2.3,9.2-2.5c2.9-0.3,5.7-0.3,8.6-0.1
	c1.4,0.1,2.8,0.3,4.2,0.6l3.5-7.6L434.9,275.1z M451,318.1l5.1,22.9l-7.3,1.9l-2.6-26.7L451,318.1z M423.1,299.4l-2,6.7l12.3,3.5
	l-5.5,19c-0.4,1.2-0.2,2.5,0.4,3.6c0.7,1.1,1.8,1.9,3.2,2.2c1.9,0.6,4,0.4,5.9-0.4c1.9-0.9,3.5-2.1,4.8-3.7c1.1-1.3,2-2.9,2.5-4.5
	c0.2-0.6,0.3-1.2,0.1-1.8c-1.8-0.5-3.3-1.5-4.6-2.8c-1.4-1.4-1.8-3.4-1.1-5.3c0.4-1.4,1.3-2.5,2.6-3.1c1.3-0.7,2.7-0.8,4.1-0.4
	c1.3,0.3,2.5,1.1,3.4,2.1c0.8,0.8,1.3,1.9,1.4,3c1.7-0.1,3.4-0.4,5.1-0.8l3.9-1l2.4-0.6l-2.2,7.7l-1.8,0.4c-0.6,0.1-1.1,0.2-1.6,0.3
	c-0.1,0-0.6,0.1-1.3,0.2l-1.7,0.2l-2,0.2c-0.9,3.1-2.2,6.1-3.7,8.9c-1.7,3.2-4.2,5.9-7.3,7.8c-3.2,2.1-7.1,2.5-11.6,1.2
	c-1.8-0.5-3.4-1.5-4.7-2.9c-1.3-1.4-2.2-3.1-2.6-4.9c-0.4-1.8-0.4-3.7,0.1-5.5l3.8-13l-6.5-1.9l-8.8,30.4l-5.9-1.7l12.9-44.8
	L423.1,299.4z M428.3,343.8l-1.9,13.7l6.1,0.9c1.9,0.3,2.8,1.2,2.6,2.8c-0.1,0.8-1.2,1.9-3.1,3.4c-1,0.7-2,1.4-3,2
	c-1,0.6-2.1,1.2-3.2,1.7c-2.3,1.1-3.8,1.6-4.5,1.5c-1,0-1.9-0.6-2.3-1.5c-0.3-0.7-0.4-1.4-0.3-2.1l3.3-23.3L428.3,343.8z M411,348.4
	l-3.8,26.8l-6.1-0.9l3.8-26.8L411,348.4z M401.5,383.4l-0.2,5.2L382.8,406l-4-5.6L401.5,383.4z M406.4,380.1l1.6,23.2l9.2-0.6
	c-0.1,0-0.2-0.1-0.2-0.2c-0.2-0.1-0.4-0.4-0.8-0.8c-0.7-0.9-1.4-1.8-1.9-2.9c-0.6-1.3-0.9-2.6-1-4c-0.2-2.2,0.3-4.3,1.2-6.2
	c1-1.9,2.4-3.6,4.2-4.7c1.8-1.2,3.8-1.9,5.9-2c2.1-0.1,4.3,0.2,6.3,0.9c2,0.6,3.8,1.5,5.6,2.6c0.9,0.5,1.7,1.1,2.4,1.5
	s1.3,1,1.8,1.5c0.6,0.5,0.9,0.8,1.3,1.1c0.1,0.1,0.3,0.2,0.4,0.4l-4,6c-0.2-0.2-0.4-0.3-0.5-0.5c-0.6-0.6-1.1-1-1.6-1.5
	c-1.5-1.2-3.2-2.3-4.9-3.1c-1.8-0.9-3.8-1.4-5.8-1.2c-1.6,0.1-3.2,0.7-4.4,1.8c-1.2,1-1.8,2.5-1.7,4c0.1,1.2,0.6,2.3,1.4,3.2
	c0.8,1,1.8,1.9,2.8,2.6c0.5,0.4,1.1,0.7,1.7,0.9l22.7-1.6l0.5,7.8l-11,0.8c1.8,2.1,2.8,4.7,3,7.4c0.2,2.3-0.2,4.6-1.1,6.7
	c-0.9,2.1-2.5,3.8-4.4,5c-2.1,1.3-4.5,2.1-7,2.2c-5.4,0.4-9.1-1.2-11-4.7c-1.8-3.1-3-6.5-3.3-10.1l6.1-2.2c-0.1,0.3-0.1,0.6-0.2,1
	c0,0.3,0,0.7,0,1c0.1,2,0.8,3.9,2,5.4c1.2,1.6,3.1,2.4,5.7,2.2c1.9-0.1,3.6-0.8,5-2.1c1.3-1.1,2-2.8,1.8-4.5
	c-0.1-1.3-0.5-2.5-1.2-3.6c-0.6-0.9-1.4-1.7-2.2-2.4l-1.4-0.9l-21,1.5l2,27.9l-6.1,0.4l-4.1-58.9L406.4,380.1z"/>
<path class="st2" d="M405.4,439.5c-3.4-16.9-5.2-34.2-5.1-51.4c0-59.7,20.8-117.4,58.8-163.5l4.8,3.9
	c-37,44.9-57.3,101.3-57.4,159.5c0,16.8,1.6,33.7,5,50.2L405.4,439.5z M911,433.5l-6.1-1.1c7.1-39.8,4.5-80.7-7.5-119.3l5.9-1.8
	C915.6,350.9,918.3,392.8,911,433.5L911,433.5z M890.4,293.7c-6-14.8-13.4-28.9-22.2-42.3l5.2-3.4c8.9,13.7,16.5,28.2,22.7,43.4
	L890.4,293.7z M846.7,222.9c-20.8-23.8-45.9-43.4-73.9-57.8l2.8-5.5c28.8,14.8,54.5,34.9,75.8,59.3L846.7,222.9z M482.2,208.6
	l-4.3-4.4c15.6-15.2,34.1-28.3,58.1-41.2l2.9,5.5C515.4,181,497.4,193.8,482.2,208.6z M746.9,153.5c-28.5-10.8-58.7-16.3-89.2-16.3
	c-31.4,0-61.2,5.4-88.6,16.2l-2.3-5.8c28.1-11,58.7-16.6,90.9-16.6c31.2-0.1,62.2,5.6,91.4,16.7L746.9,153.5z"/>
<path class="st0" d="M657.4,194c108.2,0,195.9,87,195.9,194.4s-87.7,194.4-195.9,194.4s-195.9-87-195.9-194.4S549.2,194,657.4,194"
	/>
<path class="st2" d="M729.3,611.5h-4.7v40h-8V625h-16.2c-0.8,0-1.7,0.3-2.4,0.7c-0.9,0.5-1.4,1.5-1.4,3.2c0.3,2.8,1.4,5.5,3,7.8
	c1.7,2.5,3.6,4.9,5.7,7.1c2,2,3.1,3.1,3.4,3.1l-5.4,4.6c-0.2,0-1.6-1.4-4.1-4.1c-2.6-2.8-4.9-5.9-6.9-9.1c-1-1.6-1.7-3.2-2.4-4.9
	c-0.5-1.5-0.8-3.1-0.9-4.7c0-1,0.1-2,0.3-3c0.2-0.9,0.5-1.7,1-2.5c0.8-1.3,1.9-2.5,3.2-3.2c1-0.6,2.1-0.9,3.3-1h19.8v-7.5h-34.4
	v-6.1h47L729.3,611.5z M688.2,611.5h-5.9v11.3c0,1.2-0.3,2.3-0.7,3.4c-0.5,1.2-1.3,2.2-2.3,3c-1.9,1.3-4.5,2-8,2l2.1,3.2
	c0.5,0.7,0.9,1.3,1.4,2c0.5,0.7,1,1.4,1.8,2.3c1.2,1.4,2.8,3.2,4.8,5.3c1,1.1,2.2,2.2,3.3,3.3l-5.8,4.8l-2.8-3.2l-4.9-5.8
	c-1.9-2.4-3.8-4.9-5.7-7.5c-0.7-1-1.6-2.3-2.6-3.8l-3.3-4.9l-3.5-5.4l6.1-3.9c0.3,0.9,0.7,1.7,1.2,2.4c0.9,1.4,1.9,2.7,3.2,3.8
	c1.3,1.1,2.9,1.8,4.6,1.8c0.6,0,1.1-0.1,1.6-0.3c0.4-0.2,0.8-0.6,1-1c0.4-0.7,0.6-1.4,0.6-2.2v-10.2h-24.7v-6.1h38.4V611.5z
	 M652,611.5h-4.5v40h-7.9v-40h-9.3v-6.1H652V611.5z M632.6,611.5H628v40h-8v-40h-9.3v-6.1h21.8V611.5z M620,631.3h-11.3v6.2
	c0,1.7-1,2.6-3,2.6c-0.6,0-1.9-0.9-3.9-2.6c-1.1-0.9-2-1.8-2.9-2.7c-0.9-0.8-1.8-1.8-2.7-2.8c-0.7-0.8-1.4-1.7-2.1-2.5
	c-0.4-0.4-0.6-0.9-0.7-1.4c-0.1-0.8,0.2-1.7,0.8-2.3c0.3-0.4,0.8-0.6,1.3-0.7h5.7V613c-0.1-0.6-0.4-1.2-0.8-1.7
	c-1.5-1.5-3.8-1.5-5.3-0.1c-0.6,0.6-1,1.5-1,2.4c0,0.3,0,0.6,0,0.9c0.1,0.4,0.2,0.8,0.3,1.2c0.1,0.3,0.1,0.6,0.2,0.9
	c0.1,0.2,0.1,0.3,0.1,0.4h-5.5c-0.5-1.1-0.7-2.3-0.7-3.5c-0.1-2.5,0.9-4.9,2.7-6.6c1.9-1.7,4.4-2.6,6.9-2.5c1.9,0,3.7,0.4,5.5,1.2
	c0.8,0.4,1.5,0.9,2.1,1.4c0.6,0.6,1.2,1.3,1.7,2c0.9,1.4,1.4,3.1,1.3,4.8v11.3h11.3L620,631.3z"/>
<path class="st0" d="M424.3,454.8c-4.1,0-7.5,3.4-7.4,7.5c0,4.1,3.4,7.5,7.5,7.4c4.1,0,7.4-3.4,7.4-7.5
	C431.9,458.1,428.5,454.8,424.3,454.8"/>
<path class="st0" d="M895.7,454.8c-4.1,0-7.5,3.4-7.4,7.5c0,4.1,3.4,7.5,7.5,7.4c4.1,0,7.4-3.4,7.4-7.5
	C903.2,458.1,899.8,454.8,895.7,454.8"/>
<path class="st3" d="M676.4,388.3c0,0-17.1-5.7-31.3,0.5l0.5,140.2l1.1,2.4c8.7-4.9,19.3-4.9,28.1,0l0.2-129L676.4,388.3z"/>
<path class="st4" d="M646.7,534.3c-0.3,0-0.6,0-0.8-0.1c-0.8-0.2-1.5-0.8-1.9-1.6l-1.1-2.4c-0.2-0.4-0.3-0.8-0.3-1.3l-0.5-140.2
	c0-1.2,0.7-2.3,1.8-2.8c15.1-6.5,32.7-0.8,33.4-0.6c1.4,0.4,2.2,1.8,2.1,3.2l-1.4,14l-0.2,128.7c0,1.7-1.3,3-3,3
	c-0.5,0-1-0.1-1.5-0.4c-7.8-4.3-17.2-4.4-25-0.1C647.9,534.1,647.3,534.3,646.7,534.3z M648.1,390.8l0.5,136.2
	c7.4-3,15.7-3.2,23.2-0.4l0.2-124.3l1.1-11.8C668.5,389.3,657.7,387.4,648.1,390.8L648.1,390.8z"/>
<path class="st4" d="M557.1,387.7l-30.3-12.1c-1.6-0.6-2.3-2.3-1.8-3.9c0.4-0.9,1.1-1.6,2.1-1.9l36.3-9.4l-59-22
	c-1.5-0.5-2.3-2.1-1.9-3.6c0.4-1.5,1.9-2.5,3.4-2.2l57.5,9.6L536.6,325c-1.4-0.8-1.9-2.7-1-4.1c0.6-1.1,1.8-1.6,3-1.4l40.7,4.5
	l-43.7-45.1c-1.3-1.1-1.4-3-0.3-4.2c1.1-1.3,3-1.4,4.2-0.3l46.7,32.2l-16-27.8c-0.9-1.4-0.4-3.3,1-4.1c1-0.6,2.3-0.6,3.2,0.1
	l32,20.1l-17.2-57.9c-0.5-1.5,0.3-3.1,1.7-3.6c1.4-0.6,3.1,0,3.8,1.4l26.5,49l-1.1-30.5c-0.1-1.7,1.2-3.1,2.8-3.2
	c1.1-0.1,2.1,0.5,2.7,1.4l20.2,30.9l9.7-60.5c0.2-1.6,1.6-2.7,3.1-2.5c1.6,0.1,2.8,1.3,2.9,2.9l2.7,55.7l12.9-28
	c0.5-1.3,1.9-2,3.2-1.7c1.3,0.2,2.4,1.3,2.5,2.7l3.5,34l34.5-48.4c0.8-1.5,2.6-2,4.1-1.2s2,2.6,1.2,4.1l-20.6,50l24.5-20.2
	c1.2-1.1,3.1-1,4.2,0.3c0.8,0.9,1,2.1,0.5,3.2l-13.5,32.8l55.8-31.5c1.4-1,3.2-0.6,4.2,0.7c1,1.4,0.6,3.2-0.7,4.2l-42.8,37.9
	l31.2-8.3c1.6-0.5,3.3,0.4,3.7,2c0.3,1.1,0,2.3-0.9,3.1l-25.9,24.9l63.2-5.3c1.6-0.3,3.2,0.8,3.5,2.4c0.3,1.6-0.8,3.2-2.4,3.5
	L756.3,355l40.2,3.9c1.6,0.2,2.9,1.6,2.7,3.3c-0.1,1.1-0.8,2-1.8,2.5l-46.6,19.7l-2.4-5.6l35.6-15.1l-43.6-4.3
	c-1.7-0.1-2.9-1.5-2.9-3.1c0.1-1.3,1-2.5,2.3-2.8l40.8-12.2l-42.7,3.6c-1.3,0.2-2.5-0.6-3-1.8c-0.5-1.2-0.3-2.5,0.7-3.4l23.6-22.7
	l-32.2,8.6c-1.6,0.5-3.3-0.4-3.7-2c-0.3-1.2,0-2.4,1-3.2l31-27.4l-38.5,21.7c-1.4,0.8-3.3,0.4-4.1-1.1c-0.5-0.8-0.6-1.8-0.2-2.7
	l12.2-29.8l-24.6,20.2c-1.2,1.1-3.1,1-4.2-0.3c-0.8-0.9-1-2.2-0.5-3.2l15.2-36.8l-23.9,33.5c-0.9,1.4-2.8,1.7-4.2,0.7
	c-0.7-0.5-1.2-1.3-1.3-2.2l-3.2-30.9l-13.5,29.2c-0.6,1.3-1.9,2-3.3,1.7c-1.4-0.3-2.4-1.4-2.5-2.8l-1.9-39.1l-6.4,39.7
	c-0.2,1.6-1.8,2.8-3.4,2.5c-0.9-0.1-1.6-0.6-2.1-1.4l-18.5-28.4l1.1,32.5c0,1.4-0.9,2.6-2.2,3c-1.4,0.4-2.8-0.2-3.5-1.5l-18.6-34.5
	l11.1,37.5c0.4,1.2-0.1,2.5-1.1,3.3c-1,0.7-2.4,0.8-3.4,0.1l-28.6-17.9L598,315c0.9,1.4,0.5,3.3-0.9,4.1c-1.1,0.7-2.4,0.6-3.4-0.1
	l-32.5-22.5l28.2,29.2c1.2,1.2,1.2,3.1,0,4.2c-0.7,0.7-1.6,1-2.5,0.9l-36.2-4l28.5,18.2c1.2,0.8,1.7,2.3,1.2,3.6
	c-0.5,1.4-1.9,2.2-3.3,1.9l-41-6.9l38.5,14.4c1.6,0.5,2.4,2.2,1.9,3.8c-0.3,1-1.1,1.7-2.2,2l-36.6,9.5l21.7,8.7L557.1,387.7z"/>
<path class="st4" d="M542.4,537.5l-0.2-152l2.7-0.9c2.5-0.9,62.9-21.6,102.4,4.4l1.8,1.2l-1.8,142.2l-5-1.3
	c-0.6-0.2-57.1-15.1-94,3.6L542.4,537.5z M550.1,391.2l0.2,133.6c32.8-13.5,74.7-6,89-2.8l1.7-127.6
	C609.2,375.2,561.8,387.7,550.1,391.2z"/>
<path class="st4" d="M561.1,403.7c-0.3,0-0.6-0.1-0.8-0.2l-0.4-0.3l-0.1-0.6c-0.2-2.1,5.9-3.3,8-3.4l0,0c3.3-0.3,5.8,0.6,6.9,1.4
	c0.3,0.2,0.5,0.6,0.6,1v0.5l-0.4,0.4c-0.5,0.5-1,0.4-2.2,0.2c-1.7-0.3-3.5-0.3-5.2-0.2c-1.6,0.1-3.3,0.4-4.9,0.8
	C562.2,403.5,561.7,403.6,561.1,403.7z"/>
<path class="st4" d="M561.1,411.3c-0.3,0-0.6-0.1-0.8-0.2l-0.4-0.3l-0.1-0.5c-0.2-2.1,5.9-3.3,8-3.5c3.3-0.2,5.9,0.5,6.9,1.4
	c0.3,0.2,0.5,0.6,0.6,1v0.5l-0.4,0.4c-0.5,0.5-1,0.4-2.2,0.2c-1.7-0.3-3.5-0.3-5.2-0.2c-1.6,0.1-3.3,0.4-4.9,0.8
	C562.2,411.1,561.6,411.2,561.1,411.3z"/>
<path class="st4" d="M561.1,418.8c-0.3,0-0.6-0.1-0.8-0.2l-0.4-0.3l-0.1-0.6c-0.2-2.1,5.9-3.2,8-3.4c3.3-0.2,5.9,0.6,6.9,1.4
	c0.3,0.2,0.5,0.6,0.6,1v0.5l-0.4,0.4c-0.5,0.5-1,0.4-2.2,0.2c-1.7-0.3-3.5-0.3-5.2-0.2c-1.6,0.1-3.3,0.4-4.9,0.8
	C562.2,418.6,561.7,418.7,561.1,418.8z"/>
<path class="st4" d="M561.1,426c-0.3,0-0.6-0.1-0.8-0.2l-0.4-0.3l-0.1-0.6c-0.2-2.1,5.9-3.3,8-3.4l0,0c3.3-0.3,5.8,0.6,6.9,1.4
	c0.3,0.2,0.5,0.6,0.6,1v0.5l-0.4,0.4c-0.5,0.5-1,0.4-2.2,0.2c-1.7-0.3-3.5-0.3-5.2-0.2c-1.6,0.2-3.3,0.4-4.9,0.8
	C562.2,425.8,561.7,425.9,561.1,426z"/>
<path class="st4" d="M561.1,433.2c-0.3,0-0.6-0.1-0.8-0.2l-0.4-0.3l-0.1-0.6c-0.2-2.1,5.9-3.2,8-3.4l0,0c3.3-0.2,5.8,0.5,6.9,1.4
	c0.3,0.2,0.5,0.6,0.6,1v0.5l-0.4,0.4c-0.5,0.5-1,0.4-2.2,0.2c-1.7-0.3-3.5-0.3-5.2-0.2c-1.6,0.1-3.3,0.4-4.9,0.8
	C562.2,433,561.7,433.2,561.1,433.2z"/>
<path class="st4" d="M561.1,440.4c-0.3,0-0.6-0.1-0.8-0.2l-0.4-0.3l-0.1-0.6c-0.2-2.1,5.9-3.3,8-3.4c3.3-0.2,5.9,0.6,6.9,1.4
	c0.3,0.2,0.5,0.6,0.6,1v0.5l-0.4,0.4c-0.5,0.5-1,0.4-2.2,0.2c-1.7-0.2-3.4-0.3-5.2-0.2c-1.6,0.1-3.3,0.4-4.9,0.8
	C562.2,440.3,561.7,440.4,561.1,440.4z"/>
<path class="st4" d="M561.1,447.7c-0.3,0-0.6-0.1-0.8-0.2l-0.4-0.3l-0.1-0.6c-0.2-2.1,5.9-3.3,8-3.4c3.3-0.2,5.9,0.5,6.9,1.4
	c0.3,0.2,0.5,0.6,0.6,1v0.5l-0.4,0.4c-0.5,0.5-1,0.4-2.2,0.2c-1.7-0.3-3.4-0.3-5.2-0.2c-1.6,0.1-3.3,0.4-4.9,0.8
	C562.2,447.5,561.7,447.6,561.1,447.7z"/>
<path class="st4" d="M561.1,454.9c-0.3,0-0.6-0.1-0.8-0.2l-0.4-0.3l-0.1-0.5c-0.2-2.1,5.9-3.3,8-3.5c3.3-0.2,5.9,0.5,6.9,1.4
	c0.3,0.2,0.5,0.6,0.6,1v0.5l-0.4,0.4c-0.5,0.5-1,0.4-2.2,0.2c-1.7-0.3-3.5-0.3-5.2-0.2c-1.6,0.1-3.3,0.4-4.9,0.8
	C562.2,454.7,561.6,454.8,561.1,454.9z"/>
<path class="st4" d="M561.1,462.1c-0.3,0-0.6-0.1-0.8-0.2l-0.4-0.3l-0.1-0.6c-0.2-2.1,5.9-3.3,8-3.4c3.3-0.2,5.9,0.5,6.9,1.4
	c0.3,0.2,0.5,0.6,0.6,1v0.5l-0.4,0.4c-0.5,0.5-1,0.4-2.2,0.2c-1.7-0.3-3.5-0.3-5.2-0.2c-1.6,0.2-3.3,0.4-4.9,0.8
	C562.2,461.9,561.7,462,561.1,462.1z"/>
<path class="st4" d="M561.1,469.3c-0.3,0-0.6-0.1-0.8-0.2l-0.4-0.3l-0.1-0.6c-0.2-2.1,5.9-3.3,8-3.4l0,0c3.3-0.2,5.8,0.5,6.9,1.4
	c0.3,0.2,0.5,0.6,0.6,1v0.5l-0.4,0.4c-0.5,0.5-1,0.4-2.2,0.2c-1.7-0.3-3.5-0.3-5.2-0.2c-1.6,0.1-3.3,0.4-4.9,0.8
	C562.2,469.2,561.7,469.3,561.1,469.3z"/>
<path class="st4" d="M561.1,476.5c-0.3,0-0.6-0.1-0.8-0.2l-0.4-0.3l-0.1-0.6c-0.2-2.1,5.9-3.3,8-3.4l0,0c3.3-0.2,5.8,0.6,6.9,1.4
	c0.3,0.2,0.5,0.6,0.6,1v0.5l-0.4,0.4c-0.5,0.5-1,0.4-2.2,0.2c-1.7-0.3-3.5-0.3-5.2-0.2c-1.6,0.1-3.3,0.4-4.9,0.8
	C562.2,476.4,561.7,476.5,561.1,476.5z"/>
<path class="st4" d="M561.1,483.8c-0.3,0-0.6-0.1-0.8-0.2l-0.4-0.3l-0.1-0.6c-0.2-2.1,5.9-3.3,8-3.4l0,0c3.2-0.3,5.9,0.6,6.9,1.4
	c0.3,0.2,0.5,0.6,0.6,1v0.5l-0.4,0.4c-0.5,0.5-1,0.4-2.2,0.3c-1.7-0.3-3.4-0.3-5.2-0.2c-1.6,0.2-3.3,0.4-4.9,0.8
	C562.2,483.6,561.7,483.7,561.1,483.8z"/>
<path class="st4" d="M561.1,491c-0.3,0-0.6-0.1-0.8-0.2l-0.4-0.3l-0.1-0.6c-0.2-2.1,5.9-3.3,8-3.4c3.3-0.2,5.9,0.5,6.9,1.4
	c0.3,0.2,0.5,0.6,0.6,1v0.5l-0.4,0.4c-0.5,0.5-1,0.4-2.2,0.2c-1.7-0.3-3.4-0.3-5.2-0.2c-1.6,0.1-3.3,0.4-4.9,0.8
	C562.2,490.8,561.7,490.9,561.1,491z"/>
<path class="st4" d="M561.1,498.2c-0.3,0-0.6-0.1-0.8-0.2l-0.4-0.3l-0.1-0.6c-0.2-2.1,5.9-3.3,8-3.4c3.3-0.2,5.9,0.5,6.9,1.4
	c0.3,0.2,0.5,0.6,0.6,1v0.5l-0.4,0.4c-0.5,0.4-1,0.4-2.2,0.2c-1.7-0.2-3.4-0.3-5.2-0.2c-1.6,0.1-3.3,0.4-4.9,0.8
	C562.2,498.1,561.7,498.2,561.1,498.2z"/>
<path class="st4" d="M561.1,505.4c-0.3,0-0.6-0.1-0.8-0.2l-0.4-0.3l-0.1-0.5c-0.2-2.1,5.9-3.3,8-3.5c3.3-0.2,5.9,0.5,6.9,1.4
	c0.3,0.2,0.5,0.6,0.6,1v0.5l-0.4,0.4c-0.5,0.5-1,0.4-2.2,0.2c-1.7-0.3-3.5-0.3-5.2-0.2c-1.6,0.1-3.3,0.4-4.9,0.8
	C562.2,505.3,561.6,505.4,561.1,505.4z"/>
<path class="st4" d="M561.1,512.7c-0.3,0-0.6-0.1-0.8-0.2l-0.4-0.3l-0.1-0.5c-0.2-2.1,5.9-3.3,8-3.5c3.3-0.3,5.9,0.5,6.9,1.4
	c0.3,0.2,0.5,0.6,0.6,1v0.5l-0.4,0.4c-0.5,0.5-1,0.4-2.2,0.2c-1.7-0.3-3.5-0.3-5.2-0.2c-1.6,0.1-3.3,0.4-4.9,0.8
	C562.2,512.5,561.6,512.6,561.1,512.7z"/>
<path class="st4" d="M581.7,403.7c-0.3,0-0.6-0.1-0.8-0.2l-0.4-0.3l-0.1-1l0.4-0.5c0.8-0.9,4.1-2.2,7.7-2.5l0,0
	c3.8-0.3,7.3,0.9,7.5,2.5v0.5l-0.4,0.4c-0.5,0.5-1.1,0.4-2.2,0.2c-1.7-0.3-3.4-0.3-5.2-0.2c-1.6,0.1-3.3,0.4-4.9,0.8
	C582.8,403.5,582.2,403.6,581.7,403.7z"/>
<path class="st4" d="M581.7,411.3c-0.3,0-0.6-0.1-0.8-0.3l-0.4-0.3l-0.1-1l0.4-0.5c0.8-0.9,4.1-2.2,7.7-2.5l0,0
	c3.7-0.4,7.3,0.9,7.5,2.4v0.5l-0.4,0.4c-0.5,0.5-1.1,0.4-2.2,0.2c-1.7-0.3-3.4-0.3-5.2-0.2c-1.7,0.1-3.3,0.4-4.9,0.8
	C582.7,411.2,582.2,411.3,581.7,411.3z"/>
<path class="st4" d="M581.7,418.8c-0.3,0-0.6-0.1-0.8-0.2l-0.4-0.3l-0.1-1l0.4-0.5c0.8-0.9,4.1-2.2,7.7-2.5l0,0
	c3.7-0.4,7.3,0.9,7.5,2.4v0.5l-0.4,0.4c-0.5,0.5-1.1,0.4-2.2,0.2c-1.7-0.3-3.4-0.3-5.2-0.2c-1.6,0.1-3.3,0.4-4.9,0.8
	C582.8,418.6,582.2,418.7,581.7,418.8z"/>
<path class="st4" d="M581.7,426c-0.3,0-0.6-0.1-0.8-0.2l-0.4-0.3l-0.1-1l0.4-0.5c0.8-0.9,4.1-2.2,7.7-2.5l0,0
	c3.7-0.4,7.3,0.9,7.5,2.5v0.5l-0.4,0.4c-0.5,0.5-1.1,0.4-2.2,0.2c-1.7-0.3-3.4-0.3-5.2-0.2c-1.6,0.2-3.3,0.4-4.9,0.8
	C582.8,425.9,582.2,425.9,581.7,426z"/>
<path class="st4" d="M581.7,433.2c-0.3,0-0.6-0.1-0.8-0.2l-0.4-0.3l-0.1-1l0.4-0.5c0.8-1,4.1-2.2,7.7-2.5l0,0
	c3.7-0.3,7.3,0.9,7.5,2.5v0.5l-0.4,0.4c-0.5,0.5-1,0.4-2.2,0.2c-1.7-0.3-3.5-0.3-5.2-0.2c-1.6,0.1-3.3,0.4-4.9,0.8
	C582.8,433.1,582.2,433.2,581.7,433.2z"/>
<path class="st4" d="M581.7,440.4c-0.3,0-0.6-0.1-0.8-0.2l-0.4-0.3l-0.1-1l0.4-0.5c0.8-0.9,4.2-2.2,7.7-2.5l0,0
	c3.7-0.4,7.3,0.9,7.5,2.5v0.5l-0.4,0.4c-0.5,0.5-1,0.4-2.2,0.2c-1.7-0.2-3.4-0.3-5.2-0.2c-1.6,0.2-3.3,0.4-4.9,0.8
	C582.8,440.3,582.2,440.4,581.7,440.4z"/>
<path class="st4" d="M581.7,447.7c-0.3,0-0.6-0.1-0.8-0.2l-0.4-0.3l-0.1-1l0.4-0.5c0.8-1,4.2-2.2,7.7-2.5l0,0
	c3.7-0.4,7.3,0.9,7.5,2.4v0.5l-0.4,0.4c-0.5,0.5-1,0.4-2.2,0.2c-1.7-0.3-3.4-0.3-5.2-0.2c-1.6,0.1-3.3,0.4-4.9,0.8
	C582.8,447.5,582.2,447.6,581.7,447.7z"/>
<path class="st4" d="M581.7,454.9c-0.3,0-0.6-0.1-0.8-0.3l-0.4-0.3l-0.1-1l0.4-0.5c0.8-0.9,4.1-2.2,7.7-2.5l0,0
	c3.7-0.3,7.3,0.9,7.5,2.4v0.5l-0.4,0.4c-0.5,0.5-1.1,0.4-2.2,0.2c-1.7-0.3-3.4-0.3-5.2-0.2c-1.7,0.1-3.3,0.4-4.9,0.8
	C582.7,454.8,582.2,454.8,581.7,454.9z"/>
<path class="st4" d="M581.7,462.1c-0.3,0-0.6-0.1-0.8-0.2l-0.4-0.3l-0.1-1l0.4-0.5c0.8-0.9,4.2-2.2,7.7-2.5l0,0
	c3.7-0.4,7.3,0.9,7.5,2.5v0.5l-0.4,0.4c-0.5,0.4-1.1,0.4-2.2,0.2c-1.7-0.3-3.4-0.3-5.2-0.2c-1.6,0.2-3.3,0.4-4.9,0.8
	C582.8,462,582.2,462.1,581.7,462.1z"/>
<path class="st4" d="M581.7,469.3c-0.3,0-0.6-0.1-0.8-0.2l-0.4-0.3l-0.1-1l0.4-0.5c0.8-0.9,4.2-2.2,7.7-2.5l0,0
	c3.8-0.3,7.3,0.9,7.5,2.4v0.5l-0.4,0.4c-0.5,0.5-1.1,0.4-2.2,0.2c-1.7-0.3-3.4-0.3-5.2-0.2c-1.6,0.1-3.3,0.4-4.9,0.8
	C582.8,469.2,582.2,469.3,581.7,469.3z"/>
<path class="st4" d="M581.7,476.5c-0.3,0-0.6-0.1-0.8-0.2l-0.4-0.3l-0.1-1l0.4-0.5c0.8-0.9,4.1-2.2,7.7-2.5l0,0
	c3.7-0.4,7.3,0.9,7.5,2.5v0.5l-0.4,0.4c-0.5,0.5-1.1,0.4-2.2,0.2c-1.7-0.3-3.4-0.3-5.2-0.2c-1.6,0.1-3.3,0.4-4.9,0.8
	C582.8,476.4,582.2,476.5,581.7,476.5z"/>
<path class="st4" d="M581.7,483.8c-0.3,0-0.6-0.1-0.8-0.2l-0.4-0.3l-0.1-1l0.4-0.5c0.8-1,4.1-2.2,7.7-2.5l0,0
	c3.8-0.3,7.3,0.9,7.5,2.4l0,0.5l-0.4,0.4c-0.5,0.5-1,0.4-2.2,0.2c-1.7-0.3-3.4-0.3-5.2-0.2c-1.6,0.2-3.3,0.4-4.9,0.8
	C582.8,483.6,582.2,483.7,581.7,483.8z"/>
<path class="st4" d="M581.7,491c-0.3,0-0.6-0.1-0.8-0.2l-0.4-0.3l-0.1-1l0.4-0.5c0.8-0.9,4.2-2.2,7.7-2.5l0,0
	c3.7-0.3,7.3,0.9,7.5,2.4v0.5l-0.4,0.4c-0.5,0.5-1,0.4-2.2,0.2c-1.7-0.3-3.4-0.3-5.2-0.2c-1.6,0.1-3.3,0.4-4.9,0.8
	C582.8,490.9,582.2,491,581.7,491z"/>
<path class="st4" d="M581.7,498.2c-0.3,0-0.6-0.1-0.8-0.2l-0.4-0.3l-0.1-1l0.4-0.5c0.8-0.9,4.2-2.2,7.7-2.5l0,0
	c3.7-0.3,7.3,0.9,7.5,2.5v0.5l-0.4,0.4c-0.5,0.4-1,0.4-2.2,0.2c-1.7-0.2-3.4-0.3-5.2-0.2c-1.6,0.2-3.3,0.4-4.9,0.8
	C582.8,498.1,582.2,498.2,581.7,498.2z"/>
<path class="st4" d="M581.7,505.4c-0.3,0-0.6-0.1-0.8-0.2l-0.4-0.3l-0.1-1l0.4-0.5c0.8-1,4.1-2.2,7.7-2.5l0,0
	c3.7-0.4,7.3,0.9,7.5,2.4v0.5l-0.4,0.4c-0.5,0.5-1.1,0.4-2.2,0.2c-1.7-0.3-3.4-0.3-5.2-0.2c-1.7,0.1-3.3,0.4-4.9,0.8
	C582.7,505.3,582.2,505.4,581.7,505.4z"/>
<path class="st4" d="M581.7,512.7c-0.3,0-0.6-0.1-0.8-0.3l-0.4-0.3l-0.1-1l0.4-0.5c0.8-0.9,4.1-2.2,7.7-2.5l0,0
	c3.7-0.3,7.3,0.9,7.5,2.5v0.5l-0.4,0.4c-0.5,0.5-1.1,0.4-2.2,0.2c-1.7-0.3-3.4-0.3-5.2-0.2c-1.7,0.1-3.3,0.4-4.9,0.8
	C582.7,512.5,582.2,512.6,581.7,512.7z"/>
<path class="st4" d="M601.8,403.7c-0.3,0-0.6-0.1-0.8-0.2l-0.4-0.3l-0.1-0.6c-0.1-2.1,5.9-3.3,8-3.4l0,0c3.2-0.3,5.9,0.6,6.9,1.4
	c0.3,0.2,0.5,0.6,0.6,1v0.5l-0.4,0.4c-0.5,0.5-1,0.4-2.2,0.2c-1.7-0.3-3.4-0.3-5.2-0.2c-1.6,0.1-3.3,0.4-4.9,0.8
	C602.8,403.5,602.3,403.6,601.8,403.7z"/>
<path class="st4" d="M601.8,411.3c-0.3,0-0.6-0.1-0.8-0.2l-0.4-0.3l-0.1-0.5c-0.1-2.1,5.9-3.3,8-3.5c3.3-0.2,5.9,0.5,6.9,1.4
	c0.3,0.2,0.5,0.6,0.6,1v0.5l-0.4,0.4c-0.5,0.5-1,0.4-2.2,0.2c-1.7-0.3-3.4-0.3-5.2-0.2c-1.6,0.1-3.3,0.4-4.9,0.8
	C602.8,411.1,602.3,411.2,601.8,411.3z"/>
<path class="st4" d="M601.8,418.8c-0.3,0-0.6-0.1-0.8-0.2l-0.4-0.3l-0.1-0.6c-0.1-2.1,5.9-3.2,8-3.4c3.3-0.2,5.9,0.6,6.9,1.4
	c0.3,0.2,0.5,0.6,0.6,1v0.5l-0.4,0.4c-0.5,0.5-1,0.4-2.2,0.2c-1.7-0.3-3.4-0.3-5.2-0.2c-1.6,0.1-3.3,0.4-4.9,0.8
	C602.8,418.6,602.3,418.7,601.8,418.8z"/>
<path class="st4" d="M601.8,426c-0.3,0-0.6-0.1-0.8-0.2l-0.4-0.3l-0.1-0.6c-0.1-2.1,5.9-3.3,8-3.4l0,0c3.2-0.3,5.9,0.6,6.9,1.4
	c0.3,0.2,0.5,0.6,0.6,1v0.5l-0.4,0.4c-0.5,0.5-1,0.4-2.2,0.2c-1.7-0.3-3.4-0.3-5.2-0.2c-1.6,0.2-3.3,0.4-4.9,0.8
	C602.8,425.8,602.3,425.9,601.8,426z"/>
<path class="st4" d="M601.8,433.2c-0.3,0-0.6-0.1-0.8-0.2l-0.4-0.3l-0.1-0.6c-0.1-2.1,5.9-3.2,8-3.4l0,0c3.2-0.2,5.9,0.5,6.9,1.4
	c0.3,0.2,0.5,0.6,0.6,1v0.5l-0.4,0.4c-0.5,0.5-1,0.4-2.1,0.2c-1.7-0.3-3.5-0.3-5.2-0.2c-1.6,0.1-3.3,0.4-4.9,0.8
	C602.8,433,602.3,433.2,601.8,433.2z"/>
<path class="st4" d="M601.8,440.4c-0.3,0-0.6-0.1-0.8-0.2l-0.4-0.3l-0.1-0.6c-0.1-2.1,5.9-3.3,8-3.4c3.3-0.2,5.9,0.6,6.9,1.4
	c0.3,0.2,0.5,0.6,0.6,1v0.5l-0.4,0.4c-0.5,0.5-1,0.4-2.2,0.2c-1.7-0.2-3.5-0.3-5.2-0.2c-1.6,0.2-3.3,0.4-4.9,0.8
	C602.8,440.3,602.3,440.4,601.8,440.4z"/>
<path class="st4" d="M601.8,447.7c-0.3,0-0.6-0.1-0.8-0.2l-0.4-0.3l-0.1-0.6c-0.1-2.1,5.9-3.3,8-3.4c3.3-0.2,5.9,0.5,6.9,1.4
	c0.3,0.2,0.5,0.6,0.6,1v0.5l-0.4,0.4c-0.5,0.5-1,0.4-2.2,0.2c-1.7-0.3-3.5-0.3-5.2-0.2c-1.6,0.1-3.3,0.4-4.9,0.8
	C602.8,447.5,602.3,447.6,601.8,447.7z"/>
<path class="st4" d="M601.8,454.9c-0.3,0-0.6-0.1-0.8-0.2l-0.4-0.3l-0.1-0.5c-0.1-2.1,5.9-3.3,8-3.5c3.3-0.2,5.9,0.5,6.9,1.4
	c0.3,0.2,0.5,0.6,0.6,1v0.5l-0.4,0.4c-0.5,0.5-1,0.4-2.2,0.2c-1.7-0.3-3.4-0.3-5.2-0.2c-1.6,0.1-3.3,0.4-4.9,0.8
	C602.8,454.7,602.3,454.8,601.8,454.9z"/>
<path class="st4" d="M601.8,462.1c-0.3,0-0.6-0.1-0.8-0.2l-0.4-0.3l-0.1-0.6c-0.2-2.1,5.9-3.3,8-3.4c3.3-0.2,5.9,0.5,6.9,1.4
	c0.3,0.2,0.5,0.6,0.6,1v0.5l-0.4,0.4c-0.5,0.5-1,0.4-2.2,0.2c-1.7-0.3-3.4-0.3-5.2-0.2c-1.6,0.2-3.3,0.4-4.9,0.8
	C602.8,461.9,602.3,462,601.8,462.1z"/>
<path class="st4" d="M601.8,469.3c-0.3,0-0.6-0.1-0.8-0.2l-0.4-0.3l-0.1-0.6c-0.2-2.1,5.9-3.3,8-3.4l0,0c3.3-0.2,5.9,0.5,6.9,1.4
	c0.3,0.2,0.5,0.6,0.6,1v0.5l-0.4,0.4c-0.5,0.5-1,0.4-2.2,0.2c-1.7-0.3-3.4-0.3-5.2-0.2c-1.6,0.1-3.3,0.4-4.9,0.8
	C602.8,469.2,602.3,469.3,601.8,469.3z"/>
<path class="st4" d="M601.8,476.5c-0.3,0-0.6-0.1-0.8-0.2l-0.4-0.3l-0.1-0.6c-0.1-2.1,5.9-3.3,8-3.4l0,0c3.2-0.2,5.9,0.6,6.9,1.4
	c0.3,0.2,0.5,0.6,0.6,1v0.5l-0.4,0.4c-0.5,0.5-1,0.4-2.2,0.2c-1.7-0.3-3.4-0.3-5.2-0.2c-1.6,0.1-3.3,0.4-4.9,0.8
	C602.8,476.4,602.3,476.5,601.8,476.5z"/>
<path class="st4" d="M601.8,483.8c-0.3,0-0.6-0.1-0.8-0.2l-0.4-0.3l-0.1-0.6c-0.1-2.1,5.9-3.3,8-3.4l0,0c3.2-0.3,5.9,0.6,6.9,1.4
	c0.3,0.2,0.5,0.6,0.6,1v0.5l-0.4,0.4c-0.5,0.5-1,0.4-2.2,0.3c-1.7-0.3-3.4-0.3-5.2-0.2c-1.6,0.2-3.3,0.4-4.9,0.8
	C602.8,483.6,602.3,483.7,601.8,483.8z"/>
<path class="st4" d="M601.8,491c-0.3,0-0.6-0.1-0.8-0.2l-0.4-0.3l-0.1-0.6c-0.1-2.1,5.9-3.3,8-3.4c3.3-0.2,5.9,0.5,6.9,1.4
	c0.3,0.2,0.5,0.6,0.6,1v0.5l-0.4,0.4c-0.5,0.5-1,0.4-2.2,0.2c-1.7-0.3-3.5-0.3-5.2-0.2c-1.6,0.1-3.3,0.4-4.9,0.8
	C602.8,490.8,602.3,490.9,601.8,491z"/>
<path class="st4" d="M601.8,498.2c-0.3,0-0.6-0.1-0.8-0.2l-0.4-0.3l-0.1-0.6c-0.1-2.1,5.9-3.3,8-3.4c3.3-0.2,5.9,0.5,6.9,1.4
	c0.3,0.2,0.5,0.6,0.6,1v0.5l-0.4,0.4c-0.5,0.4-1,0.4-2.2,0.2c-1.7-0.2-3.5-0.3-5.2-0.2c-1.6,0.2-3.3,0.4-4.9,0.8
	C602.8,498.1,602.3,498.2,601.8,498.2z"/>
<path class="st4" d="M601.8,505.4c-0.3,0-0.6-0.1-0.8-0.2l-0.4-0.3l-0.1-0.5c-0.1-2.1,5.9-3.3,8-3.5c3.3-0.2,5.9,0.5,6.9,1.4
	c0.3,0.2,0.5,0.6,0.6,1v0.5l-0.4,0.4c-0.5,0.5-1,0.4-2.2,0.2c-1.7-0.3-3.4-0.3-5.2-0.2c-1.6,0.1-3.3,0.4-4.9,0.8
	C602.8,505.3,602.3,505.4,601.8,505.4z"/>
<path class="st4" d="M601.8,512.7c-0.3,0-0.6-0.1-0.8-0.2l-0.4-0.3l-0.1-0.5c-0.1-2.1,5.9-3.3,8-3.5c3.3-0.3,5.9,0.5,6.9,1.4
	c0.3,0.2,0.5,0.6,0.6,1v0.5l-0.4,0.4c-0.5,0.5-1,0.4-2.2,0.2c-1.7-0.3-3.4-0.3-5.2-0.2c-1.6,0.1-3.3,0.4-4.9,0.8
	C602.8,512.5,602.3,512.6,601.8,512.7z"/>
<path class="st4" d="M621.8,403.7c-0.3,0-0.6-0.1-0.8-0.2l-0.4-0.3l-0.1-1l0.3-0.5c0.8-0.9,4.1-2.2,7.7-2.5l0,0
	c3.2-0.3,5.9,0.6,6.9,1.4c0.3,0.2,0.5,0.6,0.6,1v0.5l-0.4,0.4c-0.5,0.5-1,0.4-2.2,0.2c-1.7-0.3-3.4-0.3-5.2-0.2
	c-1.6,0.1-3.3,0.4-4.9,0.8C622.9,403.5,622.4,403.6,621.8,403.7z"/>
<path class="st4" d="M621.8,411.3c-0.3,0-0.6-0.1-0.8-0.3l-0.4-0.3l-0.1-1l0.3-0.5c0.8-0.9,4.2-2.2,7.7-2.5l0,0
	c3.3-0.2,5.9,0.5,6.9,1.4c0.3,0.2,0.5,0.6,0.6,1v0.5l-0.4,0.4c-0.5,0.5-1,0.4-2.2,0.2c-1.7-0.2-3.4-0.3-5.2-0.2
	c-1.7,0.1-3.3,0.4-4.9,0.8C622.9,411.2,622.4,411.3,621.8,411.3z"/>
<path class="st4" d="M621.8,418.8c-0.3,0-0.6-0.1-0.8-0.2l-0.4-0.3l-0.1-1l0.3-0.5c0.8-0.9,4.1-2.2,7.7-2.5l0,0
	c3.3-0.2,5.9,0.6,6.9,1.4c0.3,0.2,0.5,0.6,0.6,1v0.5l-0.4,0.4c-0.5,0.5-1,0.4-2.2,0.2c-1.7-0.3-3.4-0.3-5.2-0.2
	c-1.6,0.1-3.3,0.4-4.9,0.8C622.9,418.6,622.4,418.7,621.8,418.8z"/>
<path class="st4" d="M621.8,426c-0.3,0-0.6-0.1-0.8-0.2l-0.4-0.3l-0.1-1l0.3-0.5c0.8-0.9,4.1-2.2,7.7-2.5l0,0
	c3.3-0.3,5.8,0.6,6.9,1.4c0.3,0.2,0.5,0.6,0.6,1v0.5l-0.4,0.4c-0.5,0.5-1,0.4-2.2,0.2c-1.7-0.3-3.4-0.3-5.2-0.2
	c-1.6,0.1-3.3,0.4-4.9,0.8C622.9,425.8,622.4,425.9,621.8,426z"/>
<path class="st4" d="M621.8,433.2c-0.3,0-0.6-0.1-0.8-0.2l-0.4-0.3l-0.1-1l0.3-0.5c0.8-1,4.1-2.2,7.7-2.5l0,0
	c3.3-0.2,5.8,0.5,6.9,1.4c0.3,0.2,0.5,0.6,0.6,1v0.5l-0.4,0.4c-0.5,0.5-1,0.4-2.1,0.2c-1.7-0.3-3.5-0.3-5.2-0.2
	c-1.6,0.1-3.3,0.4-4.9,0.8C622.9,433.1,622.4,433.2,621.8,433.2z"/>
<path class="st4" d="M621.8,440.4c-0.3,0-0.6-0.1-0.8-0.2l-0.4-0.3l-0.1-1l0.3-0.5c0.8-0.9,4.2-2.2,7.7-2.5l0,0
	c3.3-0.2,5.9,0.6,6.9,1.4c0.3,0.2,0.5,0.6,0.6,1v0.5l-0.4,0.4c-0.5,0.5-1,0.4-2.2,0.2c-1.7-0.2-3.4-0.3-5.2-0.2
	c-1.6,0.1-3.3,0.4-4.9,0.8C622.9,440.3,622.4,440.4,621.8,440.4z"/>
<path class="st4" d="M621.8,447.7c-0.3,0-0.6-0.1-0.8-0.2l-0.4-0.3l-0.1-1l0.3-0.5c0.8-1,4.2-2.2,7.7-2.5l0,0
	c3.3-0.2,5.9,0.5,6.9,1.4c0.3,0.2,0.5,0.6,0.6,1v0.5l-0.4,0.4c-0.5,0.5-1,0.4-2.2,0.2c-1.7-0.3-3.4-0.3-5.2-0.2
	c-1.6,0.1-3.3,0.4-4.9,0.8C622.9,447.5,622.4,447.6,621.8,447.7z"/>
<path class="st4" d="M621.8,454.9c-0.3,0-0.6-0.1-0.8-0.3l-0.4-0.3l-0.1-1l0.3-0.5c0.8-0.9,4.2-2.2,7.7-2.5l0,0
	c3.3-0.2,5.9,0.5,6.9,1.4c0.3,0.2,0.5,0.6,0.6,1v0.5l-0.4,0.4c-0.5,0.5-1,0.4-2.2,0.2c-1.7-0.3-3.4-0.3-5.2-0.2
	c-1.7,0.1-3.3,0.4-4.9,0.8C622.9,454.7,622.4,454.8,621.8,454.9z"/>
<path class="st4" d="M621.8,462.1c-0.3,0-0.6-0.1-0.8-0.2l-0.4-0.3l-0.1-1l0.3-0.5c0.8-0.9,4.2-2.2,7.7-2.5l0,0
	c3.3-0.2,5.9,0.5,6.9,1.4c0.3,0.2,0.5,0.6,0.6,1v0.5l-0.4,0.4c-0.5,0.5-1,0.4-2.2,0.2c-1.7-0.3-3.4-0.3-5.2-0.2
	c-1.6,0.1-3.3,0.4-4.9,0.8C622.9,461.9,622.4,462,621.8,462.1z"/>
<path class="st4" d="M621.8,469.3c-0.3,0-0.6-0.1-0.8-0.2l-0.4-0.3l-0.1-1l0.3-0.5c0.8-0.9,4.2-2.2,7.7-2.5l0,0
	c3.3-0.2,5.9,0.5,6.9,1.4c0.3,0.2,0.5,0.6,0.6,1v0.5l-0.4,0.4c-0.5,0.5-1,0.4-2.2,0.2c-1.7-0.3-3.4-0.3-5.2-0.2
	c-1.6,0.1-3.3,0.4-4.9,0.8C622.9,469.2,622.4,469.3,621.8,469.3z"/>
<path class="st4" d="M621.8,476.5c-0.3,0-0.6-0.1-0.8-0.2l-0.4-0.3l-0.1-1l0.3-0.5c0.8-0.9,4.1-2.2,7.7-2.5l0,0
	c3.3-0.2,5.8,0.6,6.9,1.4c0.3,0.2,0.5,0.6,0.6,1v0.5l-0.4,0.4c-0.5,0.5-1,0.4-2.2,0.2c-1.7-0.3-3.4-0.3-5.2-0.2
	c-1.6,0.1-3.3,0.4-4.9,0.8C622.9,476.4,622.4,476.5,621.8,476.5z"/>
<path class="st4" d="M621.8,483.8c-0.3,0-0.6-0.1-0.8-0.2l-0.4-0.3l-0.1-1l0.3-0.5c0.8-1,4.1-2.2,7.7-2.5l0,0
	c3.2-0.3,5.9,0.6,6.9,1.4c0.3,0.2,0.5,0.6,0.6,1v0.5l-0.4,0.4c-0.5,0.5-1,0.4-2.2,0.3c-1.7-0.3-3.4-0.3-5.2-0.2
	c-1.6,0.1-3.3,0.4-4.9,0.8C622.9,483.6,622.4,483.7,621.8,483.8z"/>
<path class="st4" d="M621.8,491c-0.3,0-0.6-0.1-0.8-0.2l-0.4-0.3l-0.1-1l0.3-0.5c0.8-0.9,4.2-2.2,7.7-2.5l0,0
	c3.3-0.2,5.9,0.5,6.9,1.4c0.3,0.2,0.5,0.6,0.6,1v0.5l-0.4,0.4c-0.5,0.5-1,0.4-2.2,0.2c-1.7-0.3-3.4-0.3-5.2-0.2
	c-1.6,0.1-3.3,0.4-4.9,0.8C622.9,490.8,622.4,490.9,621.8,491z"/>
<path class="st4" d="M621.8,498.2c-0.3,0-0.6-0.1-0.8-0.2l-0.4-0.3l-0.1-1l0.3-0.5c0.8-0.9,4.2-2.2,7.7-2.5l0,0
	c3.3-0.2,5.9,0.5,6.9,1.4c0.3,0.2,0.5,0.6,0.6,1v0.5l-0.4,0.4c-0.5,0.4-1,0.4-2.2,0.2c-1.7-0.2-3.4-0.3-5.2-0.2
	c-1.6,0.1-3.3,0.4-4.9,0.8C622.9,498.1,622.4,498.2,621.8,498.2z"/>
<path class="st4" d="M621.8,505.4c-0.3,0-0.6-0.1-0.8-0.2l-0.4-0.3l-0.1-1l0.3-0.5c0.8-1,4.2-2.2,7.7-2.5l0,0
	c3.3-0.2,5.9,0.5,6.9,1.4c0.3,0.2,0.5,0.6,0.6,1v0.5l-0.4,0.4c-0.5,0.5-1,0.4-2.2,0.2c-1.7-0.3-3.4-0.3-5.2-0.2
	c-1.7,0.1-3.3,0.4-4.9,0.8C622.9,505.3,622.4,505.4,621.8,505.4z"/>
<path class="st4" d="M621.8,512.7c-0.3,0-0.6-0.1-0.8-0.3l-0.4-0.3l-0.1-1l0.3-0.5c0.8-0.9,4.2-2.2,7.7-2.5l0,0
	c3.3-0.3,5.9,0.5,6.9,1.4c0.3,0.2,0.5,0.6,0.6,1v0.5l-0.4,0.4c-0.5,0.5-1,0.4-2.2,0.2c-1.7-0.3-3.4-0.3-5.2-0.2
	c-1.7,0.1-3.3,0.4-4.9,0.8C622.9,512.5,622.4,512.6,621.8,512.7z"/>
<path class="st4" d="M779.4,537.5l-5.8-2.9c-36.9-18.8-93.5-3.8-94-3.6l-5,1.3l-1.8-142.2l1.8-1.2c39.4-25.9,99.8-5.3,102.3-4.4
	l2.7,0.9L779.4,537.5z M726.4,517.1c14.7,0,30.8,1.9,45,7.8l0.2-133.6c-11.7-3.5-59.1-16-90.9,3.2l1.7,127.6
	C696.9,518.9,711.6,517.2,726.4,517.1L726.4,517.1z"/>
<path class="st4" d="M760.6,403.7c-0.5,0-1.1-0.1-1.6-0.3c-1.6-0.4-3.2-0.7-4.9-0.8c-1.7-0.1-3.5,0-5.2,0.2
	c-1.1,0.1-1.7,0.2-2.2-0.2l-0.4-0.4v-0.6c0.1-1.6,3.7-2.8,7.5-2.5l0,0c3.5,0.3,6.9,1.5,7.7,2.5l0.3,0.4v0.6l0,0.5l-0.4,0.4
	C761.1,403.6,760.9,403.7,760.6,403.7z"/>
<path class="st4" d="M760.6,411.3c-0.5,0-1.1-0.1-1.6-0.3c-1.6-0.4-3.2-0.7-4.9-0.8c-1.7-0.1-3.5,0-5.2,0.2
	c-1.1,0.1-1.7,0.2-2.2-0.2l-0.4-0.4v-0.6c0.1-1.6,3.7-2.8,7.5-2.4l0,0c3.5,0.3,6.9,1.5,7.7,2.5l0.3,0.4v0.6l0,0.5l-0.4,0.4
	C761.1,411.2,760.9,411.3,760.6,411.3z"/>
<path class="st4" d="M760.6,418.8c-0.5,0-1.1-0.1-1.6-0.3c-1.6-0.4-3.2-0.7-4.9-0.8c-1.7-0.1-3.5,0-5.2,0.2
	c-1.1,0.1-1.7,0.2-2.2-0.2l-0.4-0.4v-0.6c0.1-1.6,3.7-2.8,7.5-2.4l0,0c3.5,0.3,6.9,1.5,7.7,2.5l0.3,0.4v0.6l0,0.5l-0.4,0.4
	C761.1,418.7,760.9,418.8,760.6,418.8z"/>
<path class="st4" d="M760.6,426c-0.5,0-1.1-0.1-1.6-0.3c-1.6-0.4-3.2-0.7-4.9-0.8c-1.7-0.1-3.5-0.1-5.2,0.2
	c-1.1,0.1-1.7,0.2-2.2-0.2l-0.4-0.4v-0.6c0.1-1.6,3.5-2.9,7.5-2.5l0,0c3.5,0.3,6.9,1.5,7.7,2.5l0.3,0.4v0.6l0,0.5l-0.4,0.4
	C761.1,425.9,760.9,426,760.6,426z"/>
<path class="st4" d="M760.6,433.2c-0.5,0-1.1-0.1-1.6-0.3c-1.6-0.4-3.2-0.7-4.9-0.8c-1.7-0.1-3.5-0.1-5.2,0.2
	c-1.1,0.2-1.7,0.2-2.1-0.2l-0.4-0.4v-0.6c0.1-1.6,3.7-2.8,7.5-2.4l0,0c3.5,0.3,6.9,1.5,7.7,2.5l0.3,0.4v0.6l0,0.5l-0.4,0.4
	C761.2,433.1,760.9,433.2,760.6,433.2z"/>
<path class="st4" d="M760.6,440.4c-0.5,0-1.1-0.1-1.6-0.3c-1.6-0.4-3.2-0.7-4.9-0.8c-1.7-0.1-3.5,0-5.2,0.2
	c-1.1,0.1-1.7,0.2-2.2-0.2l-0.4-0.4v-0.6c0.1-1.6,3.7-2.8,7.5-2.5l0,0c3.5,0.3,6.9,1.5,7.7,2.5l0.3,0.4v0.6l0,0.5l-0.4,0.4
	C761.1,440.3,760.9,440.4,760.6,440.4z"/>
<path class="st4" d="M760.6,447.7c-0.5,0-1.1-0.1-1.6-0.3c-1.6-0.4-3.2-0.7-4.9-0.8c-1.7-0.1-3.5-0.1-5.2,0.2
	c-1.1,0.1-1.7,0.2-2.2-0.2l-0.4-0.4v-0.6c0.1-1.6,3.7-2.8,7.5-2.4l0,0c3.5,0.3,6.9,1.5,7.7,2.5l0.3,0.4v0.6l0,0.5l-0.4,0.4
	C761.1,447.6,760.9,447.7,760.6,447.7z"/>
<path class="st4" d="M760.6,454.9c-0.5,0-1.1-0.1-1.6-0.3c-1.6-0.4-3.2-0.7-4.9-0.8c-1.7-0.1-3.5,0-5.2,0.2
	c-1.1,0.1-1.7,0.2-2.2-0.2l-0.4-0.4v-0.6c0.1-1.6,3.7-2.8,7.5-2.4l0,0c3.5,0.3,6.9,1.5,7.7,2.5l0.3,0.4v0.6l0,0.5l-0.4,0.4
	C761.2,454.8,760.9,454.9,760.6,454.9z"/>
<path class="st4" d="M760.6,462.1c-0.5,0-1.1-0.1-1.6-0.3c-1.6-0.4-3.2-0.7-4.9-0.8c-1.7-0.1-3.5,0-5.2,0.2
	c-1.1,0.1-1.7,0.2-2.2-0.2l-0.4-0.4V460c0.1-1.6,3.7-2.8,7.5-2.5l0,0c3.4,0.3,6.9,1.5,7.7,2.5l0.3,0.4v0.6l0,0.5l-0.4,0.4
	C761.1,462,760.9,462.1,760.6,462.1z"/>
<path class="st4" d="M760.6,469.3c-0.5,0-1.1-0.1-1.6-0.3c-1.6-0.4-3.2-0.7-4.9-0.8c-1.7-0.1-3.5,0-5.2,0.2
	c-1.1,0.1-1.7,0.2-2.2-0.2l-0.4-0.4v-0.6c0.1-1.6,3.7-2.8,7.5-2.4c3.4,0.3,6.9,1.5,7.7,2.5l0.3,0.4v0.6l0,0.5l-0.4,0.4
	C761.1,469.2,760.9,469.3,760.6,469.3z"/>
<path class="st4" d="M760.6,476.5c-0.5,0-1.1-0.1-1.6-0.3c-1.6-0.4-3.2-0.7-4.9-0.8c-1.7-0.1-3.5,0-5.2,0.2
	c-1.1,0.2-1.7,0.2-2.2-0.2l-0.4-0.4v-0.6c0.1-1.6,3.7-2.8,7.5-2.5l0,0c3.5,0.3,6.9,1.5,7.7,2.5l0.3,0.4v0.6l0,0.5l-0.4,0.4
	C761.1,476.5,760.9,476.5,760.6,476.5z"/>
<path class="st4" d="M760.6,483.8c-0.5,0-1.1-0.1-1.6-0.3c-1.6-0.4-3.2-0.7-4.9-0.8c-1.7-0.1-3.4,0-5.1,0.2
	c-1.2,0.1-1.7,0.2-2.2-0.3l-0.4-0.4v-0.6c0.1-1.6,3.7-2.8,7.5-2.4l0,0c3.5,0.3,6.9,1.5,7.7,2.5l0.3,0.4v0.6l0,0.5l-0.4,0.4
	C761.1,483.7,760.9,483.8,760.6,483.8z"/>
<path class="st4" d="M760.6,491c-0.5,0-1.1-0.1-1.6-0.3c-1.6-0.4-3.2-0.7-4.9-0.8c-1.7-0.1-3.5-0.1-5.2,0.2
	c-1.1,0.1-1.7,0.2-2.2-0.2l-0.4-0.4v-0.6c0.1-1.6,3.7-2.8,7.5-2.4l0,0c3.5,0.3,6.9,1.5,7.7,2.5l0.3,0.4v0.6l0,0.5l-0.4,0.4
	C761.1,490.9,760.9,491,760.6,491z"/>
<path class="st4" d="M760.6,498.2c-0.5,0-1.1-0.1-1.6-0.3c-1.6-0.4-3.2-0.7-4.9-0.8c-1.7-0.1-3.5,0-5.2,0.2
	c-1.1,0.2-1.7,0.2-2.2-0.2l-0.4-0.4v-0.6c0.1-1.6,3.7-2.8,7.5-2.5l0,0c3.5,0.3,6.9,1.5,7.7,2.5l0.3,0.4v0.6l0,0.5l-0.4,0.4
	C761.2,498.1,760.9,498.2,760.6,498.2z"/>
<path class="st4" d="M760.6,505.4c-0.5,0-1.1-0.1-1.6-0.3c-1.6-0.4-3.2-0.7-4.9-0.8c-1.7-0.1-3.5-0.1-5.2,0.2
	c-1.1,0.1-1.7,0.2-2.2-0.2l-0.4-0.4v-0.6c0.1-1.6,3.7-2.8,7.5-2.4l0,0c3.5,0.3,6.9,1.5,7.7,2.5l0.3,0.4v0.6l0,0.5l-0.4,0.4
	C761.1,505.3,760.9,505.4,760.6,505.4z"/>
<path class="st4" d="M760.6,512.7c-0.5,0-1.1-0.1-1.6-0.3c-1.6-0.4-3.2-0.7-4.9-0.8c-1.7-0.1-3.5,0-5.2,0.2
	c-1.1,0.1-1.7,0.2-2.2-0.2l-0.4-0.4v-0.6c0.1-1.6,3.7-2.8,7.5-2.5l0,0c3.5,0.3,6.9,1.5,7.7,2.5l0.3,0.4v0.6l0,0.5l-0.4,0.3
	C761.1,512.6,760.9,512.6,760.6,512.7z"/>
<path class="st4" d="M740,403.7c-0.5,0-1.1-0.1-1.6-0.3c-1.6-0.4-3.2-0.7-4.9-0.8c-1.7-0.1-3.5,0-5.2,0.2c-1.1,0.1-1.7,0.2-2.2-0.2
	l-0.4-0.4v-0.6c0.1-1.6,3.8-2.8,7.5-2.5l0,0c3.5,0.3,6.9,1.5,7.7,2.5l0.3,0.4v0.6v0.5l-0.4,0.4C740.6,403.6,740.3,403.7,740,403.7z"
	/>
<path class="st4" d="M740,411.3c-0.5,0-1.1-0.1-1.6-0.3c-1.6-0.4-3.2-0.7-4.9-0.8c-1.7-0.1-3.5,0-5.2,0.2c-1.1,0.1-1.7,0.2-2.2-0.2
	l-0.4-0.4v-0.6c0.1-1.6,3.7-2.8,7.5-2.4c3.5,0.3,6.9,1.5,7.7,2.5l0.3,0.4v0.6v0.5l-0.4,0.4C740.6,411.2,740.3,411.3,740,411.3z"/>
<path class="st4" d="M740,418.8c-0.5,0-1.1-0.1-1.6-0.3c-1.6-0.4-3.2-0.7-4.9-0.8c-1.7-0.1-3.5,0-5.2,0.2c-1.1,0.1-1.7,0.2-2.2-0.2
	l-0.4-0.4v-0.6c0.1-1.6,3.7-2.8,7.5-2.4c3.5,0.3,6.9,1.5,7.7,2.5l0.3,0.4v0.6v0.5l-0.4,0.4C740.6,418.7,740.3,418.8,740,418.8z"/>
<path class="st4" d="M740,426c-0.5,0-1.1-0.1-1.6-0.3c-1.6-0.4-3.2-0.7-4.9-0.8c-1.7-0.1-3.5-0.1-5.2,0.2c-1.1,0.1-1.7,0.2-2.2-0.2
	l-0.4-0.4v-0.6c0.1-1.6,3.5-2.9,7.5-2.5l0,0c3.5,0.3,6.9,1.5,7.7,2.5l0.3,0.4v0.6v0.5l-0.4,0.4C740.6,425.9,740.3,426,740,426z"/>
<path class="st4" d="M740,433.2c-0.5,0-1.1-0.1-1.6-0.3c-1.6-0.4-3.2-0.7-4.9-0.8c-1.7-0.1-3.5-0.1-5.2,0.2
	c-1.1,0.2-1.7,0.2-2.2-0.2l-0.4-0.4v-0.6c0.1-1.6,3.7-2.8,7.5-2.4l0,0c3.5,0.3,6.9,1.5,7.7,2.5l0.3,0.4v0.6v0.5l-0.4,0.4
	C740.6,433.1,740.3,433.2,740,433.2z"/>
<path class="st4" d="M740,440.4c-0.5,0-1.1-0.1-1.6-0.3c-1.6-0.4-3.2-0.7-4.9-0.8c-1.7-0.1-3.5,0-5.2,0.2c-1.1,0.1-1.7,0.2-2.2-0.2
	l-0.4-0.4v-0.6c0.1-1.6,3.7-2.8,7.5-2.5c3.5,0.3,6.9,1.5,7.7,2.5l0.3,0.4v0.6v0.5l-0.4,0.4C740.6,440.4,740.3,440.4,740,440.4z"/>
<path class="st4" d="M740,447.7c-0.5,0-1.1-0.1-1.6-0.3c-1.6-0.4-3.2-0.7-4.9-0.8c-1.7-0.1-3.5-0.1-5.2,0.2
	c-1.1,0.1-1.7,0.2-2.2-0.2l-0.4-0.4v-0.6c0.1-1.6,3.7-2.8,7.5-2.4c3.5,0.3,6.9,1.5,7.7,2.5l0.3,0.4v0.6v0.5l-0.4,0.4
	C740.6,447.6,740.3,447.7,740,447.7z"/>
<path class="st4" d="M740,454.9c-0.5,0-1.1-0.1-1.6-0.3c-1.6-0.4-3.2-0.7-4.9-0.8c-1.7-0.1-3.5,0-5.2,0.2c-1.1,0.1-1.7,0.2-2.2-0.2
	l-0.4-0.4v-0.6c0.1-1.6,3.7-2.8,7.5-2.4c3.5,0.3,6.9,1.5,7.7,2.5l0.3,0.4v0.6v0.5l-0.4,0.4C740.6,454.8,740.3,454.9,740,454.9z"/>
<path class="st4" d="M740,462.1c-0.5,0-1.1-0.1-1.6-0.3c-1.6-0.4-3.2-0.7-4.9-0.8c-1.7-0.1-3.5,0-5.2,0.2c-1.1,0.1-1.7,0.2-2.2-0.2
	l-0.4-0.4V460c0.1-1.6,3.7-2.8,7.5-2.5c3.4,0.3,6.9,1.5,7.7,2.5l0.3,0.4v0.6v0.5l-0.4,0.4C740.6,462,740.3,462.1,740,462.1z"/>
<path class="st4" d="M740,469.3c-0.5,0-1.1-0.1-1.6-0.3c-1.6-0.4-3.2-0.7-4.9-0.8c-1.7-0.1-3.5,0-5.2,0.2c-1.1,0.1-1.7,0.2-2.2-0.2
	l-0.4-0.4v-0.6c0.1-1.6,3.7-2.8,7.5-2.4c3.4,0.3,6.9,1.5,7.7,2.5l0.3,0.4v0.6v0.5l-0.4,0.4C740.6,469.2,740.3,469.3,740,469.3z"/>
<path class="st4" d="M740,476.5c-0.5,0-1.1-0.1-1.6-0.3c-1.6-0.4-3.2-0.7-4.9-0.8c-1.7-0.1-3.4,0-5.1,0.2c-1.1,0.2-1.7,0.2-2.2-0.2
	l-0.4-0.4v-0.6c0.1-1.6,3.5-2.9,7.5-2.5l0,0c3.5,0.3,6.9,1.5,7.7,2.5l0.3,0.4v0.6v0.5l-0.4,0.4C740.6,476.5,740.3,476.6,740,476.5z"
	/>
<path class="st4" d="M740,483.8c-0.5,0-1.1-0.1-1.6-0.3c-1.6-0.4-3.2-0.7-4.9-0.8c-1.7-0.1-3.5,0-5.2,0.2c-1.1,0.1-1.7,0.2-2.2-0.3
	l-0.4-0.4v-0.6c0.1-1.6,3.7-2.8,7.5-2.4l0,0c3.5,0.3,6.9,1.5,7.7,2.5l0.3,0.4v0.6v0.5l-0.4,0.4C740.6,483.7,740.3,483.8,740,483.8z"
	/>
<path class="st4" d="M740,491c-0.5,0-1.1-0.1-1.6-0.3c-1.6-0.4-3.2-0.7-4.9-0.8c-1.7-0.1-3.5-0.1-5.2,0.2c-1.1,0.1-1.7,0.2-2.2-0.2
	l-0.4-0.4v-0.6c0.1-1.6,3.7-2.8,7.5-2.4c3.5,0.3,6.9,1.5,7.7,2.5l0.3,0.4v0.6v0.5l-0.4,0.4C740.6,490.9,740.3,491,740,491z"/>
<path class="st4" d="M740,498.2c-0.5,0-1.1-0.1-1.6-0.3c-1.6-0.4-3.2-0.7-4.9-0.8c-1.7-0.1-3.5,0-5.2,0.2c-1.1,0.2-1.7,0.2-2.2-0.2
	l-0.4-0.4v-0.6c0.1-1.6,3.7-2.8,7.5-2.5c3.5,0.3,6.9,1.5,7.7,2.5l0.3,0.4v0.6v0.5l-0.4,0.4C740.6,498.1,740.3,498.2,740,498.2z"/>
<path class="st4" d="M740,505.4c-0.5,0-1.1-0.1-1.6-0.3c-1.6-0.4-3.2-0.7-4.9-0.8c-1.7-0.1-3.5-0.1-5.2,0.2
	c-1.1,0.1-1.7,0.2-2.2-0.2l-0.4-0.4v-0.6c0.1-1.6,3.7-2.8,7.5-2.4c3.5,0.3,6.9,1.5,7.7,2.5l0.3,0.4v0.6v0.5l-0.4,0.4
	C740.6,505.4,740.3,505.4,740,505.4z"/>
<path class="st4" d="M740,512.7c-0.5,0-1.1-0.1-1.6-0.3c-1.6-0.4-3.2-0.7-4.9-0.8c-1.7-0.1-3.5,0-5.2,0.2c-1.1,0.1-1.7,0.2-2.2-0.2
	l-0.4-0.4v-0.6c0.1-1.6,3.7-2.8,7.5-2.5c3.5,0.3,6.9,1.5,7.7,2.5l0.3,0.4v0.6v0.5l-0.4,0.3C740.6,512.6,740.3,512.7,740,512.7z"/>
<path class="st4" d="M719.9,403.7c-0.5,0-1.1-0.1-1.6-0.3c-1.6-0.4-3.2-0.7-4.9-0.8c-1.7-0.1-3.5,0-5.2,0.2
	c-1.1,0.1-1.7,0.2-2.2-0.2l-0.4-0.4v-0.6c0-0.4,0.2-0.8,0.5-1c1-0.9,3.6-1.7,6.9-1.5l0,0c3.5,0.3,6.9,1.5,7.7,2.5l0.3,0.4v0.6l0,0.5
	l-0.5,0.4C720.5,403.6,720.2,403.7,719.9,403.7z"/>
<path class="st4" d="M719.9,411.3c-0.5,0-1.1-0.1-1.6-0.3c-1.6-0.4-3.2-0.7-4.9-0.8c-1.7-0.1-3.5,0-5.2,0.2
	c-1.1,0.1-1.7,0.2-2.2-0.2l-0.4-0.4v-0.6c0-0.4,0.2-0.8,0.6-1c1-0.9,3.5-1.7,6.9-1.4c3.5,0.3,6.9,1.5,7.7,2.5l0.3,0.4v0.6l0,0.5
	l-0.5,0.4C720.5,411.2,720.2,411.3,719.9,411.3z"/>
<path class="st4" d="M719.9,418.8c-0.5,0-1.1-0.1-1.6-0.3c-1.6-0.4-3.2-0.7-4.9-0.8c-1.7-0.1-3.5,0-5.2,0.2
	c-1.1,0.1-1.7,0.2-2.2-0.2l-0.4-0.4v-0.6c0-0.4,0.2-0.8,0.6-1c1-0.9,3.5-1.7,6.9-1.4c3.5,0.3,6.9,1.5,7.7,2.5l0.3,0.4v0.6l0,0.5
	l-0.5,0.4C720.4,418.7,720.2,418.8,719.9,418.8z"/>
<path class="st4" d="M719.9,426c-0.5,0-1.1-0.1-1.6-0.3c-1.6-0.4-3.2-0.7-4.9-0.8c-1.7-0.1-3.5,0-5.2,0.2c-1.1,0.1-1.7,0.2-2.2-0.2
	l-0.4-0.4v-0.6c0-0.4,0.2-0.8,0.6-1c1-0.9,3.6-1.7,6.9-1.4l0,0c3.5,0.3,6.9,1.5,7.7,2.5l0.3,0.4v0.6l0,0.5l-0.5,0.4
	C720.5,425.9,720.2,426,719.9,426z"/>
<path class="st4" d="M719.9,433.2c-0.5,0-1.1-0.1-1.6-0.3c-1.6-0.4-3.2-0.7-4.9-0.8c-1.7-0.1-3.5-0.1-5.2,0.2
	c-1.1,0.2-1.7,0.2-2.2-0.2l-0.4-0.4v-0.6c0-0.4,0.2-0.8,0.6-1c1-0.9,3.6-1.7,6.9-1.4l0,0c3.5,0.3,6.9,1.5,7.7,2.5l0.3,0.4v0.6l0,0.5
	l-0.5,0.4C720.5,433.1,720.2,433.2,719.9,433.2z"/>
<path class="st4" d="M719.9,440.4c-0.5,0-1.1-0.1-1.6-0.3c-1.6-0.4-3.2-0.7-4.9-0.8c-1.7-0.1-3.5-0.1-5.2,0.2
	c-1.1,0.1-1.7,0.2-2.1-0.2l-0.4-0.4v-0.6c0-0.4,0.2-0.8,0.6-1c1-0.9,3.5-1.7,6.9-1.4c3.5,0.3,6.9,1.5,7.7,2.5l0.3,0.4v0.6l0,0.5
	l-0.5,0.4C720.5,440.4,720.2,440.4,719.9,440.4z"/>
<path class="st4" d="M719.9,447.7c-0.5,0-1.1-0.1-1.6-0.3c-1.6-0.4-3.2-0.7-4.9-0.8c-1.7-0.1-3.5-0.1-5.2,0.2
	c-1.1,0.1-1.7,0.2-2.1-0.2l-0.4-0.4v-0.6c0-0.4,0.2-0.8,0.6-1c1-0.9,3.5-1.7,6.9-1.4c3.5,0.3,6.9,1.5,7.7,2.5l0.3,0.4v0.6l0,0.5
	l-0.5,0.4C720.5,447.6,720.2,447.7,719.9,447.7z"/>
<path class="st4" d="M719.9,454.9c-0.5,0-1.1-0.1-1.6-0.3c-1.6-0.4-3.2-0.7-4.9-0.8c-1.7-0.1-3.5,0-5.2,0.2
	c-1.1,0.1-1.7,0.2-2.2-0.2l-0.4-0.4v-0.6c0-0.4,0.2-0.8,0.6-1c1-0.9,3.5-1.7,6.9-1.4c3.5,0.3,6.9,1.5,7.7,2.5l0.3,0.4v0.6l0,0.5
	l-0.5,0.4C720.5,454.8,720.2,454.9,719.9,454.9z"/>
<path class="st4" d="M719.9,462.1c-0.5,0-1.1-0.1-1.6-0.3c-1.6-0.4-3.2-0.7-4.9-0.8c-1.7-0.1-3.5,0-5.2,0.2
	c-1.1,0.1-1.7,0.2-2.2-0.2l-0.4-0.4V460c0-0.4,0.2-0.8,0.6-1c1-0.9,3.5-1.7,6.9-1.5c3.3,0.2,6.9,1.5,7.7,2.5l0.3,0.4v0.6l0,0.5
	l-0.5,0.4C720.5,462,720.2,462.1,719.9,462.1z"/>
<path class="st4" d="M719.9,469.3c-0.5,0-1.1-0.1-1.6-0.3c-1.6-0.4-3.2-0.7-4.9-0.8c-1.7-0.1-3.5,0-5.2,0.2
	c-1.1,0.1-1.7,0.2-2.2-0.2l-0.4-0.4v-0.6c0-0.4,0.2-0.8,0.6-1c1-0.9,3.6-1.7,6.9-1.4l0,0c3.4,0.3,6.9,1.5,7.7,2.5l0.3,0.4v0.6l0,0.5
	l-0.5,0.4C720.5,469.2,720.2,469.3,719.9,469.3z"/>
<path class="st4" d="M719.9,476.5c-0.5,0-1.1-0.1-1.6-0.3c-1.6-0.4-3.2-0.7-4.9-0.8c-1.7-0.1-3.5,0-5.2,0.2
	c-1.1,0.2-1.7,0.2-2.2-0.2l-0.4-0.4v-0.6c0-0.4,0.2-0.8,0.6-1c1-0.9,3.6-1.7,6.9-1.4l0,0c3.5,0.3,6.9,1.5,7.7,2.5l0.3,0.4v0.6l0,0.5
	l-0.5,0.4C720.5,476.5,720.2,476.5,719.9,476.5z"/>
<path class="st4" d="M719.9,483.8c-0.5,0-1.1-0.1-1.6-0.3c-1.6-0.4-3.2-0.7-4.9-0.8c-1.7-0.1-3.4-0.1-5.1,0.2
	c-1.1,0.1-1.7,0.2-2.2-0.3l-0.4-0.4v-0.6c0-0.4,0.2-0.8,0.5-1c1-0.9,3.6-1.7,6.9-1.4l0,0c3.5,0.3,6.9,1.5,7.7,2.5l0.3,0.4v0.6l0,0.5
	l-0.5,0.4C720.4,483.7,720.2,483.8,719.9,483.8z"/>
<path class="st4" d="M719.9,491c-0.5,0-1.1-0.1-1.6-0.3c-1.6-0.4-3.2-0.7-4.9-0.8c-1.7-0.1-3.5-0.1-5.2,0.2
	c-1.1,0.1-1.7,0.2-2.1-0.2l-0.4-0.4v-0.6c0-0.4,0.2-0.8,0.6-1c1-0.9,3.5-1.7,6.9-1.4c3.5,0.3,6.9,1.5,7.7,2.5l0.3,0.4v0.6l0,0.5
	l-0.5,0.4C720.5,490.9,720.2,491,719.9,491z"/>
<path class="st4" d="M719.9,498.2c-0.5,0-1.1-0.1-1.6-0.3c-1.6-0.4-3.2-0.7-4.9-0.8c-1.7-0.1-3.5-0.1-5.2,0.2
	c-1.1,0.2-1.7,0.2-2.1-0.2l-0.4-0.4v-0.6c0-0.4,0.2-0.8,0.6-1c1-0.9,3.5-1.7,6.9-1.4c3.5,0.3,6.9,1.5,7.7,2.5l0.3,0.4v0.6l0,0.5
	l-0.5,0.4C720.5,498.1,720.2,498.2,719.9,498.2z"/>
<path class="st4" d="M719.9,505.4c-0.5,0-1.1-0.1-1.6-0.3c-1.6-0.4-3.2-0.7-4.9-0.8c-1.7-0.1-3.5,0-5.2,0.2
	c-1.1,0.1-1.7,0.2-2.2-0.2l-0.4-0.4v-0.6c0-0.4,0.2-0.8,0.6-1c1-0.9,3.5-1.7,6.9-1.4c3.5,0.3,6.9,1.5,7.7,2.5l0.3,0.4v0.6l0,0.5
	l-0.5,0.4C720.5,505.3,720.2,505.4,719.9,505.4z"/>
<path class="st4" d="M719.9,512.7c-0.5,0-1.1-0.1-1.6-0.3c-1.6-0.4-3.2-0.7-4.9-0.8c-1.7-0.1-3.5,0-5.2,0.2
	c-1.1,0.1-1.7,0.2-2.2-0.2l-0.4-0.4v-0.6c0-0.4,0.2-0.8,0.6-1c1-0.9,3.5-1.7,6.9-1.4c3.5,0.3,6.9,1.5,7.7,2.5l0.3,0.4v0.6l0,0.5
	l-0.5,0.4C720.5,512.6,720.2,512.7,719.9,512.7z"/>
<path class="st4" d="M699.9,403.7c-0.5,0-1.1-0.1-1.6-0.3c-1.6-0.4-3.2-0.7-4.9-0.8c-1.7-0.1-3.5,0-5.2,0.2
	c-1.1,0.1-1.7,0.2-2.2-0.2l-0.4-0.4v-0.6c0-0.4,0.2-0.8,0.5-1c1-0.9,3.6-1.7,6.9-1.5l0,0c3.5,0.3,6.9,1.5,7.7,2.5l0.3,0.4v0.6l0,0.5
	l-0.5,0.4C700.4,403.6,700.1,403.7,699.9,403.7z"/>
<path class="st4" d="M699.9,411.3c-0.5,0-1.1-0.1-1.6-0.3c-1.6-0.4-3.2-0.7-4.9-0.8c-1.7-0.1-3.5,0-5.2,0.2
	c-1.1,0.1-1.7,0.2-2.2-0.2l-0.4-0.4v-0.6c0-0.4,0.2-0.8,0.6-1c1-0.9,3.6-1.7,6.9-1.4c3.5,0.3,6.9,1.5,7.7,2.5l0.3,0.4v0.6l0,0.5
	l-0.5,0.4C700.4,411.2,700.1,411.3,699.9,411.3z"/>
<path class="st4" d="M699.9,418.8c-0.5,0-1.1-0.1-1.6-0.3c-1.6-0.4-3.2-0.7-4.8-0.8c-1.7-0.1-3.5,0-5.2,0.2
	c-1.1,0.1-1.7,0.2-2.2-0.2l-0.4-0.4v-0.6c0-0.4,0.2-0.8,0.6-1c1-0.9,3.6-1.7,6.9-1.4c3.5,0.3,6.9,1.5,7.7,2.5l0.3,0.4v0.6l0,0.5
	l-0.5,0.4C700.4,418.7,700.1,418.8,699.9,418.8z"/>
<path class="st4" d="M699.9,426c-0.5,0-1.1-0.1-1.6-0.3c-1.6-0.4-3.2-0.7-4.9-0.8c-1.7-0.1-3.5-0.1-5.2,0.2
	c-1.1,0.1-1.7,0.2-2.2-0.2l-0.4-0.4v-0.6c0-0.4,0.2-0.8,0.6-1c1-0.9,3.6-1.7,6.9-1.4l0,0c3.5,0.3,6.9,1.5,7.7,2.5l0.3,0.4v0.6l0,0.5
	l-0.5,0.4C700.4,425.9,700.1,426,699.9,426z"/>
<path class="st4" d="M699.9,433.2c-0.5,0-1.1-0.1-1.6-0.3c-1.6-0.4-3.2-0.7-4.9-0.8c-1.7-0.1-3.5-0.1-5.2,0.2
	c-1.1,0.2-1.7,0.2-2.2-0.2l-0.4-0.4v-0.6c0-0.4,0.2-0.8,0.6-1c1-0.9,3.6-1.7,6.9-1.4l0,0c3.5,0.3,6.9,1.5,7.7,2.5l0.3,0.4v0.6l0,0.5
	l-0.5,0.4C700.4,433.1,700.1,433.2,699.9,433.2z"/>
<path class="st4" d="M699.9,440.4c-0.5,0-1.1-0.1-1.6-0.3c-1.6-0.4-3.2-0.7-4.9-0.8c-1.7-0.1-3.5,0-5.2,0.2
	c-1.1,0.1-1.7,0.2-2.2-0.2l-0.4-0.4v-0.6c0-0.4,0.2-0.8,0.6-1c1-0.9,3.6-1.7,6.9-1.4c3.5,0.3,6.9,1.5,7.7,2.5l0.3,0.4v0.6l0,0.5
	l-0.5,0.4C700.4,440.4,700.1,440.4,699.9,440.4z"/>
<path class="st4" d="M699.9,447.7c-0.5,0-1.1-0.1-1.6-0.3c-1.6-0.4-3.2-0.7-4.9-0.8c-1.7-0.1-3.5-0.1-5.2,0.2
	c-1.1,0.1-1.7,0.2-2.2-0.2l-0.4-0.4v-0.6c0-0.4,0.2-0.8,0.6-1c1-0.9,3.6-1.7,6.9-1.4c3.5,0.3,6.9,1.5,7.7,2.5l0.3,0.4v0.6l0,0.5
	l-0.5,0.4C700.4,447.6,700.1,447.7,699.9,447.7z"/>
<path class="st4" d="M699.9,454.9c-0.5,0-1.1-0.1-1.6-0.3c-1.6-0.4-3.2-0.7-4.9-0.8c-1.7-0.1-3.5,0-5.2,0.2
	c-1.1,0.1-1.7,0.2-2.2-0.2l-0.4-0.4v-0.6c0-0.4,0.2-0.8,0.6-1c1-0.9,3.6-1.7,6.9-1.4c3.5,0.3,6.9,1.5,7.7,2.5l0.3,0.4v0.6l0,0.5
	l-0.5,0.4C700.4,454.8,700.1,454.9,699.9,454.9z"/>
<path class="st4" d="M699.9,462.1c-0.5,0-1.1-0.1-1.6-0.3c-1.6-0.4-3.2-0.7-4.9-0.8c-1.7-0.1-3.5,0-5.2,0.2
	c-1.1,0.1-1.7,0.2-2.2-0.2l-0.4-0.4V460c0-0.4,0.2-0.8,0.6-1c1-0.9,3.6-1.7,6.9-1.5s6.9,1.5,7.7,2.5l0.3,0.4v0.6l0,0.5l-0.5,0.4
	C700.4,462,700.1,462.1,699.9,462.1z"/>
<path class="st4" d="M699.9,469.3c-0.5,0-1.1-0.1-1.6-0.3c-1.6-0.4-3.2-0.7-4.9-0.8c-1.7-0.1-3.5,0-5.2,0.2
	c-1.1,0.1-1.7,0.2-2.2-0.2l-0.4-0.4v-0.6c0-0.4,0.2-0.8,0.6-1c1-0.9,3.6-1.7,6.9-1.4c3.3,0.3,6.9,1.5,7.7,2.5l0.3,0.4v0.6l0,0.5
	l-0.5,0.4C700.4,469.2,700.1,469.3,699.9,469.3z"/>
<path class="st4" d="M699.9,476.5c-0.5,0-1.1-0.1-1.6-0.3c-1.6-0.4-3.2-0.7-4.9-0.8c-1.7-0.1-3.5,0-5.2,0.2
	c-1.1,0.2-1.7,0.2-2.2-0.2l-0.4-0.4v-0.6c0-0.4,0.2-0.8,0.6-1c1-0.9,3.6-1.7,6.9-1.4l0,0c3.5,0.3,6.9,1.5,7.7,2.5l0.3,0.4v0.6l0,0.5
	l-0.5,0.4C700.4,476.5,700.1,476.5,699.9,476.5z"/>
<path class="st4" d="M699.9,483.8c-0.5,0-1.1-0.1-1.6-0.3c-1.6-0.4-3.2-0.7-4.8-0.8c-1.7-0.1-3.5,0-5.2,0.2
	c-1.1,0.1-1.7,0.2-2.2-0.3l-0.4-0.4v-0.6c0-0.4,0.2-0.8,0.5-1c1-0.9,3.6-1.7,6.9-1.4l0,0c3.5,0.3,6.9,1.5,7.7,2.5l0.3,0.4v0.6l0,0.5
	l-0.5,0.4C700.4,483.7,700.1,483.8,699.9,483.8z"/>
<path class="st4" d="M699.9,491c-0.5,0-1.1-0.1-1.6-0.3c-1.6-0.4-3.2-0.7-4.9-0.8c-1.7-0.1-3.5-0.1-5.2,0.2
	c-1.1,0.1-1.7,0.2-2.2-0.2l-0.4-0.4v-0.6c0-0.4,0.2-0.8,0.6-1c1-0.9,3.6-1.7,6.9-1.4c3.5,0.3,6.9,1.5,7.7,2.5l0.3,0.4v0.6l0,0.5
	l-0.5,0.4C700.4,490.9,700.1,491,699.9,491z"/>
<path class="st4" d="M699.9,498.2c-0.5,0-1.1-0.1-1.6-0.3c-1.6-0.4-3.2-0.7-4.9-0.8c-1.7-0.1-3.5,0-5.2,0.2
	c-1.1,0.2-1.7,0.2-2.2-0.2l-0.4-0.4v-0.6c0-0.4,0.2-0.8,0.6-1c1-0.9,3.6-1.7,6.9-1.4c3.5,0.3,6.9,1.5,7.7,2.5l0.3,0.4v0.6l0,0.5
	l-0.5,0.4C700.4,498.1,700.1,498.2,699.9,498.2z"/>
<path class="st4" d="M699.9,505.4c-0.5,0-1.1-0.1-1.6-0.3c-1.6-0.4-3.2-0.7-4.9-0.8c-1.7-0.1-3.5-0.1-5.2,0.2
	c-1.1,0.1-1.7,0.2-2.2-0.2l-0.4-0.4v-0.6c0-0.4,0.2-0.8,0.6-1c1-0.9,3.6-1.7,6.9-1.4c3.5,0.3,6.9,1.5,7.7,2.5l0.3,0.4v0.6l0,0.5
	l-0.5,0.4C700.4,505.3,700.1,505.4,699.9,505.4z"/>
<path class="st4" d="M699.9,512.7c-0.5,0-1.1-0.1-1.6-0.3c-1.6-0.4-3.2-0.7-4.9-0.8c-1.7-0.1-3.5,0-5.2,0.2
	c-1.1,0.1-1.7,0.2-2.2-0.2l-0.4-0.4v-0.6c0-0.4,0.2-0.8,0.6-1c1-0.9,3.6-1.7,6.9-1.4c3.5,0.3,6.9,1.5,7.7,2.5l0.3,0.4v0.6l0,0.5
	l-0.5,0.4C700.4,512.6,700.1,512.7,699.9,512.7z"/>
<path class="st3" d="M657.6,310.3c-6.4,9.6-9.2,21.1-7.8,32.5c0,0,0.9,11.7,9,11.7C666.9,354.5,676.7,329.2,657.6,310.3"/>
<path class="st3" d="M646.5,336.7v-6.3c-37.2,1.8-49,31.7-18.2,53.4c10.7,6.4,45.3,7.9,57.4,1c33.7-22.5,25.6-52.3-13.1-54.6
	l-0.2,6.1c41.1,11.1,13.6,22.8-13.6,24C633.1,361.2,604.4,347.1,646.5,336.7"/>
</svg>
